<?xml version="1.0" encoding="utf-8" standalone="no"?>
<!DOCTYPE svg PUBLIC "-//W3C//DTD SVG 1.1//EN"
  "http://www.w3.org/Graphics/SVG/1.1/DTD/svg11.dtd">
<svg xmlns:xlink="http://www.w3.org/1999/xlink" width="460.8pt" height="345.6pt" viewBox="0 0 460.8 345.6" xmlns="http://www.w3.org/2000/svg" version="1.1">
 <metadata>
  <rdf:RDF xmlns:dc="http://purl.org/dc/elements/1.1/" xmlns:cc="http://creativecommons.org/ns#" xmlns:rdf="http://www.w3.org/1999/02/22-rdf-syntax-ns#">
   <cc:Work>
    <dc:type rdf:resource="http://purl.org/dc/dcmitype/StillImage"/>
    <dc:date>2023-08-16T08:51:38.623703</dc:date>
    <dc:format>image/svg+xml</dc:format>
    <dc:creator>
     <cc:Agent>
      <dc:title>Matplotlib v3.7.2, https://matplotlib.org/</dc:title>
     </cc:Agent>
    </dc:creator>
   </cc:Work>
  </rdf:RDF>
 </metadata>
 <defs>
  <style type="text/css">*{stroke-linejoin: round; stroke-linecap: butt}</style>
 </defs>
 <g id="figure_1">
  <g id="patch_1">
   <path d="M 0 345.6 
L 460.8 345.6 
L 460.8 0 
L 0 0 
z
" style="fill: #ffffff"/>
  </g>
  <g id="axes_1">
   <g id="LineCollection_1">
    <path d="M 161.434543 51.122542 
L 162.267775 83.537332 
" clip-path="url(#p028c31deda)" style="fill: none; stroke: #00ffff"/>
    <path d="M 162.267775 83.537332 
L 121.748743 70.986699 
" clip-path="url(#p028c31deda)" style="fill: none; stroke: #00ffff"/>
    <path d="M 162.267775 83.537332 
L 199.903859 115.247664 
" clip-path="url(#p028c31deda)" style="fill: none; stroke: #00ffff"/>
    <path d="M 335.081976 252.204148 
L 357.87052 288.114915 
" clip-path="url(#p028c31deda)" style="fill: none; stroke: #00ffff"/>
    <path d="M 335.081976 252.204148 
L 332.36672 210.916138 
" clip-path="url(#p028c31deda)" style="fill: none; stroke: #00ffff"/>
    <path d="M 335.081976 252.204148 
L 302.496475 238.253611 
" clip-path="url(#p028c31deda)" style="fill: none; stroke: #00ffff"/>
    <path d="M 357.87052 288.114915 
L 374.508462 315.609917 
" clip-path="url(#p028c31deda)" style="fill: none; stroke: #00ffff"/>
    <path d="M 332.36672 210.916138 
L 290.566323 208.848157 
" clip-path="url(#p028c31deda)" style="fill: none; stroke: #00ffff"/>
    <path d="M 332.36672 210.916138 
L 366.763534 187.631667 
" clip-path="url(#p028c31deda)" style="fill: none; stroke: #00ffff"/>
    <path d="M 302.496475 238.253611 
L 266.612276 213.370444 
" clip-path="url(#p028c31deda)" style="fill: none; stroke: #00ffff"/>
    <path d="M 121.748743 70.986699 
L 82.861046 63.05316 
" clip-path="url(#p028c31deda)" style="fill: none; stroke: #00ffff"/>
    <path d="M 199.903859 115.247664 
L 238.637567 151.929438 
" clip-path="url(#p028c31deda)" style="fill: none; stroke: #00ffff"/>
    <path d="M 245.861424 216.270198 
L 212.495155 235.593378 
" clip-path="url(#p028c31deda)" style="fill: none; stroke: #00ffff"/>
    <path d="M 245.861424 216.270198 
L 224.270042 207.749382 
" clip-path="url(#p028c31deda)" style="fill: none; stroke: #00ffff"/>
    <path d="M 245.861424 216.270198 
L 290.566323 208.848157 
" clip-path="url(#p028c31deda)" style="fill: none; stroke: #00ffff"/>
    <path d="M 212.495155 235.593378 
L 189.021341 253.334458 
" clip-path="url(#p028c31deda)" style="fill: none; stroke: #00ffff"/>
    <path d="M 72.634038 29.990083 
L 82.861046 63.05316 
" clip-path="url(#p028c31deda)" style="fill: none; stroke: #00ffff"/>
    <path d="M 82.861046 63.05316 
L 59.274359 90.323141 
" clip-path="url(#p028c31deda)" style="fill: none; stroke: #00ffff"/>
    <path d="M 82.861046 63.05316 
L 59.797167 50.632034 
" clip-path="url(#p028c31deda)" style="fill: none; stroke: #00ffff"/>
    <path d="M 59.274359 90.323141 
L 39.986777 110.71634 
" clip-path="url(#p028c31deda)" style="fill: none; stroke: #00ffff"/>
    <path d="M 255.636673 126.333434 
L 238.637567 151.929438 
" clip-path="url(#p028c31deda)" style="fill: none; stroke: #00ffff"/>
    <path d="M 238.637567 151.929438 
L 237.133909 119.694122 
" clip-path="url(#p028c31deda)" style="fill: none; stroke: #00ffff"/>
    <path d="M 238.637567 151.929438 
L 266.612276 213.370444 
" clip-path="url(#p028c31deda)" style="fill: none; stroke: #00ffff"/>
    <path d="M 396.877363 169.46034 
L 420.813223 157.120886 
" clip-path="url(#p028c31deda)" style="fill: none; stroke: #00ffff"/>
    <path d="M 396.877363 169.46034 
L 366.763534 187.631667 
" clip-path="url(#p028c31deda)" style="fill: none; stroke: #00ffff"/>
    <path d="M 257.056197 249.024317 
L 266.612276 213.370444 
" clip-path="url(#p028c31deda)" style="fill: none; stroke: #00ffff"/>
    <path d="M 266.612276 213.370444 
L 273.592564 250.99807 
" clip-path="url(#p028c31deda)" style="fill: none; stroke: #00ffff"/>
   </g>
   <g id="PathCollection_1">
    <defs>
     <path id="C0_0_16671759e7" d="M 0 8.660254 
C 2.296726 8.660254 4.499694 7.747755 6.123724 6.123724 
C 7.747755 4.499694 8.660254 2.296726 8.660254 -0 
C 8.660254 -2.296726 7.747755 -4.499694 6.123724 -6.123724 
C 4.499694 -7.747755 2.296726 -8.660254 0 -8.660254 
C -2.296726 -8.660254 -4.499694 -7.747755 -6.123724 -6.123724 
C -7.747755 -4.499694 -8.660254 -2.296726 -8.660254 0 
C -8.660254 2.296726 -7.747755 4.499694 -6.123724 6.123724 
C -4.499694 7.747755 -2.296726 8.660254 0 8.660254 
z
"/>
    </defs>
    <g clip-path="url(#p028c31deda)">
     <use xlink:href="#C0_0_16671759e7" x="161.434543" y="51.122542" style="fill: #00ffff; stroke: #00ffff"/>
    </g>
    <g clip-path="url(#p028c31deda)">
     <use xlink:href="#C0_0_16671759e7" x="162.267775" y="83.537332" style="fill: #00ffff; stroke: #00ffff"/>
    </g>
    <g clip-path="url(#p028c31deda)">
     <use xlink:href="#C0_0_16671759e7" x="335.081976" y="252.204148" style="fill: #00ffff; stroke: #00ffff"/>
    </g>
    <g clip-path="url(#p028c31deda)">
     <use xlink:href="#C0_0_16671759e7" x="357.87052" y="288.114915" style="fill: #00ffff; stroke: #00ffff"/>
    </g>
    <g clip-path="url(#p028c31deda)">
     <use xlink:href="#C0_0_16671759e7" x="332.36672" y="210.916138" style="fill: #00ffff; stroke: #00ffff"/>
    </g>
    <g clip-path="url(#p028c31deda)">
     <use xlink:href="#C0_0_16671759e7" x="302.496475" y="238.253611" style="fill: #00ffff; stroke: #00ffff"/>
    </g>
    <g clip-path="url(#p028c31deda)">
     <use xlink:href="#C0_0_16671759e7" x="121.748743" y="70.986699" style="fill: #00ffff; stroke: #00ffff"/>
    </g>
    <g clip-path="url(#p028c31deda)">
     <use xlink:href="#C0_0_16671759e7" x="199.903859" y="115.247664" style="fill: #00ffff; stroke: #00ffff"/>
    </g>
    <g clip-path="url(#p028c31deda)">
     <use xlink:href="#C0_0_16671759e7" x="245.861424" y="216.270198" style="fill: #00ffff; stroke: #00ffff"/>
    </g>
    <g clip-path="url(#p028c31deda)">
     <use xlink:href="#C0_0_16671759e7" x="212.495155" y="235.593378" style="fill: #00ffff; stroke: #00ffff"/>
    </g>
    <g clip-path="url(#p028c31deda)">
     <use xlink:href="#C0_0_16671759e7" x="224.270042" y="207.749382" style="fill: #00ffff; stroke: #00ffff"/>
    </g>
    <g clip-path="url(#p028c31deda)">
     <use xlink:href="#C0_0_16671759e7" x="290.566323" y="208.848157" style="fill: #00ffff; stroke: #00ffff"/>
    </g>
    <g clip-path="url(#p028c31deda)">
     <use xlink:href="#C0_0_16671759e7" x="72.634038" y="29.990083" style="fill: #00ffff; stroke: #00ffff"/>
    </g>
    <g clip-path="url(#p028c31deda)">
     <use xlink:href="#C0_0_16671759e7" x="82.861046" y="63.05316" style="fill: #00ffff; stroke: #00ffff"/>
    </g>
    <g clip-path="url(#p028c31deda)">
     <use xlink:href="#C0_0_16671759e7" x="59.274359" y="90.323141" style="fill: #00ffff; stroke: #00ffff"/>
    </g>
    <g clip-path="url(#p028c31deda)">
     <use xlink:href="#C0_0_16671759e7" x="39.986777" y="110.71634" style="fill: #00ffff; stroke: #00ffff"/>
    </g>
    <g clip-path="url(#p028c31deda)">
     <use xlink:href="#C0_0_16671759e7" x="374.508462" y="315.609917" style="fill: #00ffff; stroke: #00ffff"/>
    </g>
    <g clip-path="url(#p028c31deda)">
     <use xlink:href="#C0_0_16671759e7" x="59.797167" y="50.632034" style="fill: #00ffff; stroke: #00ffff"/>
    </g>
    <g clip-path="url(#p028c31deda)">
     <use xlink:href="#C0_0_16671759e7" x="255.636673" y="126.333434" style="fill: #00ffff; stroke: #00ffff"/>
    </g>
    <g clip-path="url(#p028c31deda)">
     <use xlink:href="#C0_0_16671759e7" x="238.637567" y="151.929438" style="fill: #00ffff; stroke: #00ffff"/>
    </g>
    <g clip-path="url(#p028c31deda)">
     <use xlink:href="#C0_0_16671759e7" x="189.021341" y="253.334458" style="fill: #00ffff; stroke: #00ffff"/>
    </g>
    <g clip-path="url(#p028c31deda)">
     <use xlink:href="#C0_0_16671759e7" x="396.877363" y="169.46034" style="fill: #00ffff; stroke: #00ffff"/>
    </g>
    <g clip-path="url(#p028c31deda)">
     <use xlink:href="#C0_0_16671759e7" x="420.813223" y="157.120886" style="fill: #00ffff; stroke: #00ffff"/>
    </g>
    <g clip-path="url(#p028c31deda)">
     <use xlink:href="#C0_0_16671759e7" x="366.763534" y="187.631667" style="fill: #00ffff; stroke: #00ffff"/>
    </g>
    <g clip-path="url(#p028c31deda)">
     <use xlink:href="#C0_0_16671759e7" x="237.133909" y="119.694122" style="fill: #00ffff; stroke: #00ffff"/>
    </g>
    <g clip-path="url(#p028c31deda)">
     <use xlink:href="#C0_0_16671759e7" x="257.056197" y="249.024317" style="fill: #00ffff; stroke: #00ffff"/>
    </g>
    <g clip-path="url(#p028c31deda)">
     <use xlink:href="#C0_0_16671759e7" x="266.612276" y="213.370444" style="fill: #00ffff; stroke: #00ffff"/>
    </g>
    <g clip-path="url(#p028c31deda)">
     <use xlink:href="#C0_0_16671759e7" x="273.592564" y="250.99807" style="fill: #00ffff; stroke: #00ffff"/>
    </g>
   </g>
   <g id="text_1">
    <g clip-path="url(#p028c31deda)">
     <!-- 0 -->
     <g transform="translate(157.617043 54.433792) scale(0.12 -0.12)">
      <defs>
       <path id="DejaVuSans-30" d="M 2034 4250 
Q 1547 4250 1301 3770 
Q 1056 3291 1056 2328 
Q 1056 1369 1301 889 
Q 1547 409 2034 409 
Q 2525 409 2770 889 
Q 3016 1369 3016 2328 
Q 3016 3291 2770 3770 
Q 2525 4250 2034 4250 
z
M 2034 4750 
Q 2819 4750 3233 4129 
Q 3647 3509 3647 2328 
Q 3647 1150 3233 529 
Q 2819 -91 2034 -91 
Q 1250 -91 836 529 
Q 422 1150 422 2328 
Q 422 3509 836 4129 
Q 1250 4750 2034 4750 
z
" transform="scale(0.015625)"/>
      </defs>
      <use xlink:href="#DejaVuSans-30"/>
     </g>
    </g>
   </g>
   <g id="text_2">
    <g clip-path="url(#p028c31deda)">
     <!-- 2 -->
     <g transform="translate(158.450275 86.848582) scale(0.12 -0.12)">
      <defs>
       <path id="DejaVuSans-32" d="M 1228 531 
L 3431 531 
L 3431 0 
L 469 0 
L 469 531 
Q 828 903 1448 1529 
Q 2069 2156 2228 2338 
Q 2531 2678 2651 2914 
Q 2772 3150 2772 3378 
Q 2772 3750 2511 3984 
Q 2250 4219 1831 4219 
Q 1534 4219 1204 4116 
Q 875 4013 500 3803 
L 500 4441 
Q 881 4594 1212 4672 
Q 1544 4750 1819 4750 
Q 2544 4750 2975 4387 
Q 3406 4025 3406 3419 
Q 3406 3131 3298 2873 
Q 3191 2616 2906 2266 
Q 2828 2175 2409 1742 
Q 1991 1309 1228 531 
z
" transform="scale(0.015625)"/>
      </defs>
      <use xlink:href="#DejaVuSans-32"/>
     </g>
    </g>
   </g>
   <g id="text_3">
    <g clip-path="url(#p028c31deda)">
     <!-- 1 -->
     <g transform="translate(331.264476 255.515398) scale(0.12 -0.12)">
      <defs>
       <path id="DejaVuSans-31" d="M 794 531 
L 1825 531 
L 1825 4091 
L 703 3866 
L 703 4441 
L 1819 4666 
L 2450 4666 
L 2450 531 
L 3481 531 
L 3481 0 
L 794 0 
L 794 531 
z
" transform="scale(0.015625)"/>
      </defs>
      <use xlink:href="#DejaVuSans-31"/>
     </g>
    </g>
   </g>
   <g id="text_4">
    <g clip-path="url(#p028c31deda)">
     <!-- 6 -->
     <g transform="translate(354.05302 291.426165) scale(0.12 -0.12)">
      <defs>
       <path id="DejaVuSans-36" d="M 2113 2584 
Q 1688 2584 1439 2293 
Q 1191 2003 1191 1497 
Q 1191 994 1439 701 
Q 1688 409 2113 409 
Q 2538 409 2786 701 
Q 3034 994 3034 1497 
Q 3034 2003 2786 2293 
Q 2538 2584 2113 2584 
z
M 3366 4563 
L 3366 3988 
Q 3128 4100 2886 4159 
Q 2644 4219 2406 4219 
Q 1781 4219 1451 3797 
Q 1122 3375 1075 2522 
Q 1259 2794 1537 2939 
Q 1816 3084 2150 3084 
Q 2853 3084 3261 2657 
Q 3669 2231 3669 1497 
Q 3669 778 3244 343 
Q 2819 -91 2113 -91 
Q 1303 -91 875 529 
Q 447 1150 447 2328 
Q 447 3434 972 4092 
Q 1497 4750 2381 4750 
Q 2619 4750 2861 4703 
Q 3103 4656 3366 4563 
z
" transform="scale(0.015625)"/>
      </defs>
      <use xlink:href="#DejaVuSans-36"/>
     </g>
    </g>
   </g>
   <g id="text_5">
    <g clip-path="url(#p028c31deda)">
     <!-- 14 -->
     <g transform="translate(324.73172 214.227388) scale(0.12 -0.12)">
      <defs>
       <path id="DejaVuSans-34" d="M 2419 4116 
L 825 1625 
L 2419 1625 
L 2419 4116 
z
M 2253 4666 
L 3047 4666 
L 3047 1625 
L 3713 1625 
L 3713 1100 
L 3047 1100 
L 3047 0 
L 2419 0 
L 2419 1100 
L 313 1100 
L 313 1709 
L 2253 4666 
z
" transform="scale(0.015625)"/>
      </defs>
      <use xlink:href="#DejaVuSans-31"/>
      <use xlink:href="#DejaVuSans-34" x="63.623047"/>
     </g>
    </g>
   </g>
   <g id="text_6">
    <g clip-path="url(#p028c31deda)">
     <!-- 22 -->
     <g transform="translate(294.861475 241.564861) scale(0.12 -0.12)">
      <use xlink:href="#DejaVuSans-32"/>
      <use xlink:href="#DejaVuSans-32" x="63.623047"/>
     </g>
    </g>
   </g>
   <g id="text_7">
    <g clip-path="url(#p028c31deda)">
     <!-- 17 -->
     <g transform="translate(114.113743 74.297949) scale(0.12 -0.12)">
      <defs>
       <path id="DejaVuSans-37" d="M 525 4666 
L 3525 4666 
L 3525 4397 
L 1831 0 
L 1172 0 
L 2766 4134 
L 525 4134 
L 525 4666 
z
" transform="scale(0.015625)"/>
      </defs>
      <use xlink:href="#DejaVuSans-31"/>
      <use xlink:href="#DejaVuSans-37" x="63.623047"/>
     </g>
    </g>
   </g>
   <g id="text_8">
    <g clip-path="url(#p028c31deda)">
     <!-- 21 -->
     <g transform="translate(192.268859 118.558914) scale(0.12 -0.12)">
      <use xlink:href="#DejaVuSans-32"/>
      <use xlink:href="#DejaVuSans-31" x="63.623047"/>
     </g>
    </g>
   </g>
   <g id="text_9">
    <g clip-path="url(#p028c31deda)">
     <!-- 3 -->
     <g transform="translate(242.043924 219.581448) scale(0.12 -0.12)">
      <defs>
       <path id="DejaVuSans-33" d="M 2597 2516 
Q 3050 2419 3304 2112 
Q 3559 1806 3559 1356 
Q 3559 666 3084 287 
Q 2609 -91 1734 -91 
Q 1441 -91 1130 -33 
Q 819 25 488 141 
L 488 750 
Q 750 597 1062 519 
Q 1375 441 1716 441 
Q 2309 441 2620 675 
Q 2931 909 2931 1356 
Q 2931 1769 2642 2001 
Q 2353 2234 1838 2234 
L 1294 2234 
L 1294 2753 
L 1863 2753 
Q 2328 2753 2575 2939 
Q 2822 3125 2822 3475 
Q 2822 3834 2567 4026 
Q 2313 4219 1838 4219 
Q 1578 4219 1281 4162 
Q 984 4106 628 3988 
L 628 4550 
Q 988 4650 1302 4700 
Q 1616 4750 1894 4750 
Q 2613 4750 3031 4423 
Q 3450 4097 3450 3541 
Q 3450 3153 3228 2886 
Q 3006 2619 2597 2516 
z
" transform="scale(0.015625)"/>
      </defs>
      <use xlink:href="#DejaVuSans-33"/>
     </g>
    </g>
   </g>
   <g id="text_10">
    <g clip-path="url(#p028c31deda)">
     <!-- 11 -->
     <g transform="translate(204.860155 238.904628) scale(0.12 -0.12)">
      <use xlink:href="#DejaVuSans-31"/>
      <use xlink:href="#DejaVuSans-31" x="63.623047"/>
     </g>
    </g>
   </g>
   <g id="text_11">
    <g clip-path="url(#p028c31deda)">
     <!-- 16 -->
     <g transform="translate(216.635042 211.060632) scale(0.12 -0.12)">
      <use xlink:href="#DejaVuSans-31"/>
      <use xlink:href="#DejaVuSans-36" x="63.623047"/>
     </g>
    </g>
   </g>
   <g id="text_12">
    <g clip-path="url(#p028c31deda)">
     <!-- 20 -->
     <g transform="translate(282.931323 212.159407) scale(0.12 -0.12)">
      <use xlink:href="#DejaVuSans-32"/>
      <use xlink:href="#DejaVuSans-30" x="63.623047"/>
     </g>
    </g>
   </g>
   <g id="text_13">
    <g clip-path="url(#p028c31deda)">
     <!-- 4 -->
     <g transform="translate(68.816538 33.301333) scale(0.12 -0.12)">
      <use xlink:href="#DejaVuSans-34"/>
     </g>
    </g>
   </g>
   <g id="text_14">
    <g clip-path="url(#p028c31deda)">
     <!-- 7 -->
     <g transform="translate(79.043546 66.36441) scale(0.12 -0.12)">
      <use xlink:href="#DejaVuSans-37"/>
     </g>
    </g>
   </g>
   <g id="text_15">
    <g clip-path="url(#p028c31deda)">
     <!-- 5 -->
     <g transform="translate(55.456859 93.634391) scale(0.12 -0.12)">
      <defs>
       <path id="DejaVuSans-35" d="M 691 4666 
L 3169 4666 
L 3169 4134 
L 1269 4134 
L 1269 2991 
Q 1406 3038 1543 3061 
Q 1681 3084 1819 3084 
Q 2600 3084 3056 2656 
Q 3513 2228 3513 1497 
Q 3513 744 3044 326 
Q 2575 -91 1722 -91 
Q 1428 -91 1123 -41 
Q 819 9 494 109 
L 494 744 
Q 775 591 1075 516 
Q 1375 441 1709 441 
Q 2250 441 2565 725 
Q 2881 1009 2881 1497 
Q 2881 1984 2565 2268 
Q 2250 2553 1709 2553 
Q 1456 2553 1204 2497 
Q 953 2441 691 2322 
L 691 4666 
z
" transform="scale(0.015625)"/>
      </defs>
      <use xlink:href="#DejaVuSans-35"/>
     </g>
    </g>
   </g>
   <g id="text_16">
    <g clip-path="url(#p028c31deda)">
     <!-- 25 -->
     <g transform="translate(32.351777 114.02759) scale(0.12 -0.12)">
      <use xlink:href="#DejaVuSans-32"/>
      <use xlink:href="#DejaVuSans-35" x="63.623047"/>
     </g>
    </g>
   </g>
   <g id="text_17">
    <g clip-path="url(#p028c31deda)">
     <!-- 10 -->
     <g transform="translate(366.873462 318.921167) scale(0.12 -0.12)">
      <use xlink:href="#DejaVuSans-31"/>
      <use xlink:href="#DejaVuSans-30" x="63.623047"/>
     </g>
    </g>
   </g>
   <g id="text_18">
    <g clip-path="url(#p028c31deda)">
     <!-- 9 -->
     <g transform="translate(55.979667 53.943284) scale(0.12 -0.12)">
      <defs>
       <path id="DejaVuSans-39" d="M 703 97 
L 703 672 
Q 941 559 1184 500 
Q 1428 441 1663 441 
Q 2288 441 2617 861 
Q 2947 1281 2994 2138 
Q 2813 1869 2534 1725 
Q 2256 1581 1919 1581 
Q 1219 1581 811 2004 
Q 403 2428 403 3163 
Q 403 3881 828 4315 
Q 1253 4750 1959 4750 
Q 2769 4750 3195 4129 
Q 3622 3509 3622 2328 
Q 3622 1225 3098 567 
Q 2575 -91 1691 -91 
Q 1453 -91 1209 -44 
Q 966 3 703 97 
z
M 1959 2075 
Q 2384 2075 2632 2365 
Q 2881 2656 2881 3163 
Q 2881 3666 2632 3958 
Q 2384 4250 1959 4250 
Q 1534 4250 1286 3958 
Q 1038 3666 1038 3163 
Q 1038 2656 1286 2365 
Q 1534 2075 1959 2075 
z
" transform="scale(0.015625)"/>
      </defs>
      <use xlink:href="#DejaVuSans-39"/>
     </g>
    </g>
   </g>
   <g id="text_19">
    <g clip-path="url(#p028c31deda)">
     <!-- 8 -->
     <g transform="translate(251.819173 129.644684) scale(0.12 -0.12)">
      <defs>
       <path id="DejaVuSans-38" d="M 2034 2216 
Q 1584 2216 1326 1975 
Q 1069 1734 1069 1313 
Q 1069 891 1326 650 
Q 1584 409 2034 409 
Q 2484 409 2743 651 
Q 3003 894 3003 1313 
Q 3003 1734 2745 1975 
Q 2488 2216 2034 2216 
z
M 1403 2484 
Q 997 2584 770 2862 
Q 544 3141 544 3541 
Q 544 4100 942 4425 
Q 1341 4750 2034 4750 
Q 2731 4750 3128 4425 
Q 3525 4100 3525 3541 
Q 3525 3141 3298 2862 
Q 3072 2584 2669 2484 
Q 3125 2378 3379 2068 
Q 3634 1759 3634 1313 
Q 3634 634 3220 271 
Q 2806 -91 2034 -91 
Q 1263 -91 848 271 
Q 434 634 434 1313 
Q 434 1759 690 2068 
Q 947 2378 1403 2484 
z
M 1172 3481 
Q 1172 3119 1398 2916 
Q 1625 2713 2034 2713 
Q 2441 2713 2670 2916 
Q 2900 3119 2900 3481 
Q 2900 3844 2670 4047 
Q 2441 4250 2034 4250 
Q 1625 4250 1398 4047 
Q 1172 3844 1172 3481 
z
" transform="scale(0.015625)"/>
      </defs>
      <use xlink:href="#DejaVuSans-38"/>
     </g>
    </g>
   </g>
   <g id="text_20">
    <g clip-path="url(#p028c31deda)">
     <!-- 26 -->
     <g transform="translate(231.002567 155.240688) scale(0.12 -0.12)">
      <use xlink:href="#DejaVuSans-32"/>
      <use xlink:href="#DejaVuSans-36" x="63.623047"/>
     </g>
    </g>
   </g>
   <g id="text_21">
    <g clip-path="url(#p028c31deda)">
     <!-- 13 -->
     <g transform="translate(181.386341 256.645708) scale(0.12 -0.12)">
      <use xlink:href="#DejaVuSans-31"/>
      <use xlink:href="#DejaVuSans-33" x="63.623047"/>
     </g>
    </g>
   </g>
   <g id="text_22">
    <g clip-path="url(#p028c31deda)">
     <!-- 12 -->
     <g transform="translate(389.242363 172.77159) scale(0.12 -0.12)">
      <use xlink:href="#DejaVuSans-31"/>
      <use xlink:href="#DejaVuSans-32" x="63.623047"/>
     </g>
    </g>
   </g>
   <g id="text_23">
    <g clip-path="url(#p028c31deda)">
     <!-- 18 -->
     <g transform="translate(413.178223 160.432136) scale(0.12 -0.12)">
      <use xlink:href="#DejaVuSans-31"/>
      <use xlink:href="#DejaVuSans-38" x="63.623047"/>
     </g>
    </g>
   </g>
   <g id="text_24">
    <g clip-path="url(#p028c31deda)">
     <!-- 24 -->
     <g transform="translate(359.128534 190.942917) scale(0.12 -0.12)">
      <use xlink:href="#DejaVuSans-32"/>
      <use xlink:href="#DejaVuSans-34" x="63.623047"/>
     </g>
    </g>
   </g>
   <g id="text_25">
    <g clip-path="url(#p028c31deda)">
     <!-- 15 -->
     <g transform="translate(229.498909 123.005372) scale(0.12 -0.12)">
      <use xlink:href="#DejaVuSans-31"/>
      <use xlink:href="#DejaVuSans-35" x="63.623047"/>
     </g>
    </g>
   </g>
   <g id="text_26">
    <g clip-path="url(#p028c31deda)">
     <!-- 19 -->
     <g transform="translate(249.421197 252.335567) scale(0.12 -0.12)">
      <use xlink:href="#DejaVuSans-31"/>
      <use xlink:href="#DejaVuSans-39" x="63.623047"/>
     </g>
    </g>
   </g>
   <g id="text_27">
    <g clip-path="url(#p028c31deda)">
     <!-- 23 -->
     <g transform="translate(258.977276 216.681694) scale(0.12 -0.12)">
      <use xlink:href="#DejaVuSans-32"/>
      <use xlink:href="#DejaVuSans-33" x="63.623047"/>
     </g>
    </g>
   </g>
   <g id="text_28">
    <g clip-path="url(#p028c31deda)">
     <!-- 27 -->
     <g transform="translate(265.957564 254.30932) scale(0.12 -0.12)">
      <use xlink:href="#DejaVuSans-32"/>
      <use xlink:href="#DejaVuSans-37" x="63.623047"/>
     </g>
    </g>
   </g>
  </g>
 </g>
 <defs>
  <clipPath id="p028c31deda">
   <rect x="0" y="0" width="460.8" height="345.6"/>
  </clipPath>
 </defs>
</svg>
