<?xml version="1.0" encoding="utf-8" standalone="no"?>
<!DOCTYPE svg PUBLIC "-//W3C//DTD SVG 1.1//EN"
  "http://www.w3.org/Graphics/SVG/1.1/DTD/svg11.dtd">
<svg xmlns:xlink="http://www.w3.org/1999/xlink" width="460.8pt" height="345.6pt" viewBox="0 0 460.8 345.6" xmlns="http://www.w3.org/2000/svg" version="1.1">
 <metadata>
  <rdf:RDF xmlns:dc="http://purl.org/dc/elements/1.1/" xmlns:cc="http://creativecommons.org/ns#" xmlns:rdf="http://www.w3.org/1999/02/22-rdf-syntax-ns#">
   <cc:Work>
    <dc:type rdf:resource="http://purl.org/dc/dcmitype/StillImage"/>
    <dc:date>2023-08-16T02:43:32.954203</dc:date>
    <dc:format>image/svg+xml</dc:format>
    <dc:creator>
     <cc:Agent>
      <dc:title>Matplotlib v3.7.2, https://matplotlib.org/</dc:title>
     </cc:Agent>
    </dc:creator>
   </cc:Work>
  </rdf:RDF>
 </metadata>
 <defs>
  <style type="text/css">*{stroke-linejoin: round; stroke-linecap: butt}</style>
 </defs>
 <g id="figure_1">
  <g id="patch_1">
   <path d="M 0 345.6 
L 460.8 345.6 
L 460.8 0 
L 0 0 
z
" style="fill: #ffffff"/>
  </g>
  <g id="axes_1">
   <g id="LineCollection_1">
    <path d="M 211.930739 156.465221 
L 143.155532 136.679471 
" clip-path="url(#p920a6a5e1d)" style="fill: none; stroke: #ff0000"/>
    <path d="M 211.930739 156.465221 
L 201.912491 123.345761 
" clip-path="url(#p920a6a5e1d)" style="fill: none; stroke: #ff0000"/>
    <path d="M 211.930739 156.465221 
L 205.924022 219.718804 
" clip-path="url(#p920a6a5e1d)" style="fill: none; stroke: #ff0000"/>
    <path d="M 211.930739 156.465221 
L 276.335237 154.115308 
" clip-path="url(#p920a6a5e1d)" style="fill: none; stroke: #ff0000"/>
    <path d="M 211.930739 156.465221 
L 245.104662 129.332607 
" clip-path="url(#p920a6a5e1d)" style="fill: none; stroke: #ff0000"/>
    <path d="M 106.977589 140.319566 
L 143.155532 136.679471 
" clip-path="url(#p920a6a5e1d)" style="fill: none; stroke: #ff0000"/>
    <path d="M 39.986777 30.775866 
L 65.750766 57.480333 
" clip-path="url(#p920a6a5e1d)" style="fill: none; stroke: #ff0000"/>
    <path d="M 336.801536 155.630782 
L 385.40826 170.641621 
" clip-path="url(#p920a6a5e1d)" style="fill: none; stroke: #ff0000"/>
    <path d="M 336.801536 155.630782 
L 276.335237 154.115308 
" clip-path="url(#p920a6a5e1d)" style="fill: none; stroke: #ff0000"/>
    <path d="M 205.924022 219.718804 
L 197.040009 274.559899 
" clip-path="url(#p920a6a5e1d)" style="fill: none; stroke: #ff0000"/>
    <path d="M 291.045433 68.317897 
L 292.36862 29.990083 
" clip-path="url(#p920a6a5e1d)" style="fill: none; stroke: #ff0000"/>
    <path d="M 291.045433 68.317897 
L 281.93254 119.023077 
" clip-path="url(#p920a6a5e1d)" style="fill: none; stroke: #ff0000"/>
    <path d="M 245.104662 129.332607 
L 281.93254 119.023077 
" clip-path="url(#p920a6a5e1d)" style="fill: none; stroke: #ff0000"/>
    <path d="M 128.190685 105.124287 
L 143.155532 136.679471 
" clip-path="url(#p920a6a5e1d)" style="fill: none; stroke: #ff0000"/>
    <path d="M 116.441682 220.914559 
L 134.38808 186.237886 
" clip-path="url(#p920a6a5e1d)" style="fill: none; stroke: #ff0000"/>
    <path d="M 65.750766 57.480333 
L 100.223335 92.941115 
" clip-path="url(#p920a6a5e1d)" style="fill: none; stroke: #ff0000"/>
    <path d="M 297.301593 214.428643 
L 293.960556 171.722377 
" clip-path="url(#p920a6a5e1d)" style="fill: none; stroke: #ff0000"/>
    <path d="M 385.40826 170.641621 
L 417.245777 203.340539 
" clip-path="url(#p920a6a5e1d)" style="fill: none; stroke: #ff0000"/>
    <path d="M 420.813223 246.753167 
L 417.245777 203.340539 
" clip-path="url(#p920a6a5e1d)" style="fill: none; stroke: #ff0000"/>
    <path d="M 420.813223 246.753167 
L 394.678791 284.094891 
" clip-path="url(#p920a6a5e1d)" style="fill: none; stroke: #ff0000"/>
    <path d="M 281.93254 119.023077 
L 293.960556 171.722377 
" clip-path="url(#p920a6a5e1d)" style="fill: none; stroke: #ff0000"/>
    <path d="M 100.223335 92.941115 
L 143.155532 136.679471 
" clip-path="url(#p920a6a5e1d)" style="fill: none; stroke: #ff0000"/>
    <path d="M 197.040009 274.559899 
L 188.545676 315.609917 
" clip-path="url(#p920a6a5e1d)" style="fill: none; stroke: #ff0000"/>
    <path d="M 134.38808 186.237886 
L 143.155532 136.679471 
" clip-path="url(#p920a6a5e1d)" style="fill: none; stroke: #ff0000"/>
    <path d="M 134.38808 186.237886 
L 164.274487 201.301672 
" clip-path="url(#p920a6a5e1d)" style="fill: none; stroke: #ff0000"/>
    <path d="M 358.03527 293.889042 
L 394.678791 284.094891 
" clip-path="url(#p920a6a5e1d)" style="fill: none; stroke: #ff0000"/>
    <path d="M 405.491064 274.214019 
L 394.678791 284.094891 
" clip-path="url(#p920a6a5e1d)" style="fill: none; stroke: #ff0000"/>
   </g>
   <g id="PathCollection_1">
    <defs>
     <path id="C0_0_e4068fddc8" d="M 0 8.660254 
C 2.296726 8.660254 4.499694 7.747755 6.123724 6.123724 
C 7.747755 4.499694 8.660254 2.296726 8.660254 -0 
C 8.660254 -2.296726 7.747755 -4.499694 6.123724 -6.123724 
C 4.499694 -7.747755 2.296726 -8.660254 0 -8.660254 
C -2.296726 -8.660254 -4.499694 -7.747755 -6.123724 -6.123724 
C -7.747755 -4.499694 -8.660254 -2.296726 -8.660254 0 
C -8.660254 2.296726 -7.747755 4.499694 -6.123724 6.123724 
C -4.499694 7.747755 -2.296726 8.660254 0 8.660254 
z
"/>
    </defs>
    <g clip-path="url(#p920a6a5e1d)">
     <use xlink:href="#C0_0_e4068fddc8" x="211.930739" y="156.465221" style="fill: #00ffff; stroke: #00ffff"/>
    </g>
    <g clip-path="url(#p920a6a5e1d)">
     <use xlink:href="#C0_0_e4068fddc8" x="106.977589" y="140.319566" style="fill: #00ffff; stroke: #00ffff"/>
    </g>
    <g clip-path="url(#p920a6a5e1d)">
     <use xlink:href="#C0_0_e4068fddc8" x="39.986777" y="30.775866" style="fill: #00ffff; stroke: #00ffff"/>
    </g>
    <g clip-path="url(#p920a6a5e1d)">
     <use xlink:href="#C0_0_e4068fddc8" x="336.801536" y="155.630782" style="fill: #00ffff; stroke: #00ffff"/>
    </g>
    <g clip-path="url(#p920a6a5e1d)">
     <use xlink:href="#C0_0_e4068fddc8" x="205.924022" y="219.718804" style="fill: #00ffff; stroke: #00ffff"/>
    </g>
    <g clip-path="url(#p920a6a5e1d)">
     <use xlink:href="#C0_0_e4068fddc8" x="291.045433" y="68.317897" style="fill: #00ffff; stroke: #00ffff"/>
    </g>
    <g clip-path="url(#p920a6a5e1d)">
     <use xlink:href="#C0_0_e4068fddc8" x="245.104662" y="129.332607" style="fill: #00ffff; stroke: #00ffff"/>
    </g>
    <g clip-path="url(#p920a6a5e1d)">
     <use xlink:href="#C0_0_e4068fddc8" x="128.190685" y="105.124287" style="fill: #00ffff; stroke: #00ffff"/>
    </g>
    <g clip-path="url(#p920a6a5e1d)">
     <use xlink:href="#C0_0_e4068fddc8" x="116.441682" y="220.914559" style="fill: #00ffff; stroke: #00ffff"/>
    </g>
    <g clip-path="url(#p920a6a5e1d)">
     <use xlink:href="#C0_0_e4068fddc8" x="65.750766" y="57.480333" style="fill: #00ffff; stroke: #00ffff"/>
    </g>
    <g clip-path="url(#p920a6a5e1d)">
     <use xlink:href="#C0_0_e4068fddc8" x="292.36862" y="29.990083" style="fill: #00ffff; stroke: #00ffff"/>
    </g>
    <g clip-path="url(#p920a6a5e1d)">
     <use xlink:href="#C0_0_e4068fddc8" x="297.301593" y="214.428643" style="fill: #00ffff; stroke: #00ffff"/>
    </g>
    <g clip-path="url(#p920a6a5e1d)">
     <use xlink:href="#C0_0_e4068fddc8" x="385.40826" y="170.641621" style="fill: #00ffff; stroke: #00ffff"/>
    </g>
    <g clip-path="url(#p920a6a5e1d)">
     <use xlink:href="#C0_0_e4068fddc8" x="420.813223" y="246.753167" style="fill: #00ffff; stroke: #00ffff"/>
    </g>
    <g clip-path="url(#p920a6a5e1d)">
     <use xlink:href="#C0_0_e4068fddc8" x="281.93254" y="119.023077" style="fill: #00ffff; stroke: #00ffff"/>
    </g>
    <g clip-path="url(#p920a6a5e1d)">
     <use xlink:href="#C0_0_e4068fddc8" x="100.223335" y="92.941115" style="fill: #00ffff; stroke: #00ffff"/>
    </g>
    <g clip-path="url(#p920a6a5e1d)">
     <use xlink:href="#C0_0_e4068fddc8" x="276.335237" y="154.115308" style="fill: #00ffff; stroke: #00ffff"/>
    </g>
    <g clip-path="url(#p920a6a5e1d)">
     <use xlink:href="#C0_0_e4068fddc8" x="197.040009" y="274.559899" style="fill: #00ffff; stroke: #00ffff"/>
    </g>
    <g clip-path="url(#p920a6a5e1d)">
     <use xlink:href="#C0_0_e4068fddc8" x="134.38808" y="186.237886" style="fill: #00ffff; stroke: #00ffff"/>
    </g>
    <g clip-path="url(#p920a6a5e1d)">
     <use xlink:href="#C0_0_e4068fddc8" x="293.960556" y="171.722377" style="fill: #00ffff; stroke: #00ffff"/>
    </g>
    <g clip-path="url(#p920a6a5e1d)">
     <use xlink:href="#C0_0_e4068fddc8" x="201.912491" y="123.345761" style="fill: #00ffff; stroke: #00ffff"/>
    </g>
    <g clip-path="url(#p920a6a5e1d)">
     <use xlink:href="#C0_0_e4068fddc8" x="164.274487" y="201.301672" style="fill: #00ffff; stroke: #00ffff"/>
    </g>
    <g clip-path="url(#p920a6a5e1d)">
     <use xlink:href="#C0_0_e4068fddc8" x="358.03527" y="293.889042" style="fill: #00ffff; stroke: #00ffff"/>
    </g>
    <g clip-path="url(#p920a6a5e1d)">
     <use xlink:href="#C0_0_e4068fddc8" x="143.155532" y="136.679471" style="fill: #00ffff; stroke: #00ffff"/>
    </g>
    <g clip-path="url(#p920a6a5e1d)">
     <use xlink:href="#C0_0_e4068fddc8" x="405.491064" y="274.214019" style="fill: #00ffff; stroke: #00ffff"/>
    </g>
    <g clip-path="url(#p920a6a5e1d)">
     <use xlink:href="#C0_0_e4068fddc8" x="394.678791" y="284.094891" style="fill: #00ffff; stroke: #00ffff"/>
    </g>
    <g clip-path="url(#p920a6a5e1d)">
     <use xlink:href="#C0_0_e4068fddc8" x="417.245777" y="203.340539" style="fill: #00ffff; stroke: #00ffff"/>
    </g>
    <g clip-path="url(#p920a6a5e1d)">
     <use xlink:href="#C0_0_e4068fddc8" x="188.545676" y="315.609917" style="fill: #00ffff; stroke: #00ffff"/>
    </g>
   </g>
   <g id="text_1">
    <g clip-path="url(#p920a6a5e1d)">
     <!-- 0 -->
     <g transform="translate(208.113239 159.776471) scale(0.12 -0.12)">
      <defs>
       <path id="DejaVuSans-30" d="M 2034 4250 
Q 1547 4250 1301 3770 
Q 1056 3291 1056 2328 
Q 1056 1369 1301 889 
Q 1547 409 2034 409 
Q 2525 409 2770 889 
Q 3016 1369 3016 2328 
Q 3016 3291 2770 3770 
Q 2525 4250 2034 4250 
z
M 2034 4750 
Q 2819 4750 3233 4129 
Q 3647 3509 3647 2328 
Q 3647 1150 3233 529 
Q 2819 -91 2034 -91 
Q 1250 -91 836 529 
Q 422 1150 422 2328 
Q 422 3509 836 4129 
Q 1250 4750 2034 4750 
z
" transform="scale(0.015625)"/>
      </defs>
      <use xlink:href="#DejaVuSans-30"/>
     </g>
    </g>
   </g>
   <g id="text_2">
    <g clip-path="url(#p920a6a5e1d)">
     <!-- 1 -->
     <g transform="translate(103.160089 143.630816) scale(0.12 -0.12)">
      <defs>
       <path id="DejaVuSans-31" d="M 794 531 
L 1825 531 
L 1825 4091 
L 703 3866 
L 703 4441 
L 1819 4666 
L 2450 4666 
L 2450 531 
L 3481 531 
L 3481 0 
L 794 0 
L 794 531 
z
" transform="scale(0.015625)"/>
      </defs>
      <use xlink:href="#DejaVuSans-31"/>
     </g>
    </g>
   </g>
   <g id="text_3">
    <g clip-path="url(#p920a6a5e1d)">
     <!-- 2 -->
     <g transform="translate(36.169277 34.087116) scale(0.12 -0.12)">
      <defs>
       <path id="DejaVuSans-32" d="M 1228 531 
L 3431 531 
L 3431 0 
L 469 0 
L 469 531 
Q 828 903 1448 1529 
Q 2069 2156 2228 2338 
Q 2531 2678 2651 2914 
Q 2772 3150 2772 3378 
Q 2772 3750 2511 3984 
Q 2250 4219 1831 4219 
Q 1534 4219 1204 4116 
Q 875 4013 500 3803 
L 500 4441 
Q 881 4594 1212 4672 
Q 1544 4750 1819 4750 
Q 2544 4750 2975 4387 
Q 3406 4025 3406 3419 
Q 3406 3131 3298 2873 
Q 3191 2616 2906 2266 
Q 2828 2175 2409 1742 
Q 1991 1309 1228 531 
z
" transform="scale(0.015625)"/>
      </defs>
      <use xlink:href="#DejaVuSans-32"/>
     </g>
    </g>
   </g>
   <g id="text_4">
    <g clip-path="url(#p920a6a5e1d)">
     <!-- 3 -->
     <g transform="translate(332.984036 158.942032) scale(0.12 -0.12)">
      <defs>
       <path id="DejaVuSans-33" d="M 2597 2516 
Q 3050 2419 3304 2112 
Q 3559 1806 3559 1356 
Q 3559 666 3084 287 
Q 2609 -91 1734 -91 
Q 1441 -91 1130 -33 
Q 819 25 488 141 
L 488 750 
Q 750 597 1062 519 
Q 1375 441 1716 441 
Q 2309 441 2620 675 
Q 2931 909 2931 1356 
Q 2931 1769 2642 2001 
Q 2353 2234 1838 2234 
L 1294 2234 
L 1294 2753 
L 1863 2753 
Q 2328 2753 2575 2939 
Q 2822 3125 2822 3475 
Q 2822 3834 2567 4026 
Q 2313 4219 1838 4219 
Q 1578 4219 1281 4162 
Q 984 4106 628 3988 
L 628 4550 
Q 988 4650 1302 4700 
Q 1616 4750 1894 4750 
Q 2613 4750 3031 4423 
Q 3450 4097 3450 3541 
Q 3450 3153 3228 2886 
Q 3006 2619 2597 2516 
z
" transform="scale(0.015625)"/>
      </defs>
      <use xlink:href="#DejaVuSans-33"/>
     </g>
    </g>
   </g>
   <g id="text_5">
    <g clip-path="url(#p920a6a5e1d)">
     <!-- 4 -->
     <g transform="translate(202.106522 223.030054) scale(0.12 -0.12)">
      <defs>
       <path id="DejaVuSans-34" d="M 2419 4116 
L 825 1625 
L 2419 1625 
L 2419 4116 
z
M 2253 4666 
L 3047 4666 
L 3047 1625 
L 3713 1625 
L 3713 1100 
L 3047 1100 
L 3047 0 
L 2419 0 
L 2419 1100 
L 313 1100 
L 313 1709 
L 2253 4666 
z
" transform="scale(0.015625)"/>
      </defs>
      <use xlink:href="#DejaVuSans-34"/>
     </g>
    </g>
   </g>
   <g id="text_6">
    <g clip-path="url(#p920a6a5e1d)">
     <!-- 5 -->
     <g transform="translate(287.227933 71.629147) scale(0.12 -0.12)">
      <defs>
       <path id="DejaVuSans-35" d="M 691 4666 
L 3169 4666 
L 3169 4134 
L 1269 4134 
L 1269 2991 
Q 1406 3038 1543 3061 
Q 1681 3084 1819 3084 
Q 2600 3084 3056 2656 
Q 3513 2228 3513 1497 
Q 3513 744 3044 326 
Q 2575 -91 1722 -91 
Q 1428 -91 1123 -41 
Q 819 9 494 109 
L 494 744 
Q 775 591 1075 516 
Q 1375 441 1709 441 
Q 2250 441 2565 725 
Q 2881 1009 2881 1497 
Q 2881 1984 2565 2268 
Q 2250 2553 1709 2553 
Q 1456 2553 1204 2497 
Q 953 2441 691 2322 
L 691 4666 
z
" transform="scale(0.015625)"/>
      </defs>
      <use xlink:href="#DejaVuSans-35"/>
     </g>
    </g>
   </g>
   <g id="text_7">
    <g clip-path="url(#p920a6a5e1d)">
     <!-- 6 -->
     <g transform="translate(241.287162 132.643857) scale(0.12 -0.12)">
      <defs>
       <path id="DejaVuSans-36" d="M 2113 2584 
Q 1688 2584 1439 2293 
Q 1191 2003 1191 1497 
Q 1191 994 1439 701 
Q 1688 409 2113 409 
Q 2538 409 2786 701 
Q 3034 994 3034 1497 
Q 3034 2003 2786 2293 
Q 2538 2584 2113 2584 
z
M 3366 4563 
L 3366 3988 
Q 3128 4100 2886 4159 
Q 2644 4219 2406 4219 
Q 1781 4219 1451 3797 
Q 1122 3375 1075 2522 
Q 1259 2794 1537 2939 
Q 1816 3084 2150 3084 
Q 2853 3084 3261 2657 
Q 3669 2231 3669 1497 
Q 3669 778 3244 343 
Q 2819 -91 2113 -91 
Q 1303 -91 875 529 
Q 447 1150 447 2328 
Q 447 3434 972 4092 
Q 1497 4750 2381 4750 
Q 2619 4750 2861 4703 
Q 3103 4656 3366 4563 
z
" transform="scale(0.015625)"/>
      </defs>
      <use xlink:href="#DejaVuSans-36"/>
     </g>
    </g>
   </g>
   <g id="text_8">
    <g clip-path="url(#p920a6a5e1d)">
     <!-- 7 -->
     <g transform="translate(124.373185 108.435537) scale(0.12 -0.12)">
      <defs>
       <path id="DejaVuSans-37" d="M 525 4666 
L 3525 4666 
L 3525 4397 
L 1831 0 
L 1172 0 
L 2766 4134 
L 525 4134 
L 525 4666 
z
" transform="scale(0.015625)"/>
      </defs>
      <use xlink:href="#DejaVuSans-37"/>
     </g>
    </g>
   </g>
   <g id="text_9">
    <g clip-path="url(#p920a6a5e1d)">
     <!-- 8 -->
     <g transform="translate(112.624182 224.225809) scale(0.12 -0.12)">
      <defs>
       <path id="DejaVuSans-38" d="M 2034 2216 
Q 1584 2216 1326 1975 
Q 1069 1734 1069 1313 
Q 1069 891 1326 650 
Q 1584 409 2034 409 
Q 2484 409 2743 651 
Q 3003 894 3003 1313 
Q 3003 1734 2745 1975 
Q 2488 2216 2034 2216 
z
M 1403 2484 
Q 997 2584 770 2862 
Q 544 3141 544 3541 
Q 544 4100 942 4425 
Q 1341 4750 2034 4750 
Q 2731 4750 3128 4425 
Q 3525 4100 3525 3541 
Q 3525 3141 3298 2862 
Q 3072 2584 2669 2484 
Q 3125 2378 3379 2068 
Q 3634 1759 3634 1313 
Q 3634 634 3220 271 
Q 2806 -91 2034 -91 
Q 1263 -91 848 271 
Q 434 634 434 1313 
Q 434 1759 690 2068 
Q 947 2378 1403 2484 
z
M 1172 3481 
Q 1172 3119 1398 2916 
Q 1625 2713 2034 2713 
Q 2441 2713 2670 2916 
Q 2900 3119 2900 3481 
Q 2900 3844 2670 4047 
Q 2441 4250 2034 4250 
Q 1625 4250 1398 4047 
Q 1172 3844 1172 3481 
z
" transform="scale(0.015625)"/>
      </defs>
      <use xlink:href="#DejaVuSans-38"/>
     </g>
    </g>
   </g>
   <g id="text_10">
    <g clip-path="url(#p920a6a5e1d)">
     <!-- 9 -->
     <g transform="translate(61.933266 60.791583) scale(0.12 -0.12)">
      <defs>
       <path id="DejaVuSans-39" d="M 703 97 
L 703 672 
Q 941 559 1184 500 
Q 1428 441 1663 441 
Q 2288 441 2617 861 
Q 2947 1281 2994 2138 
Q 2813 1869 2534 1725 
Q 2256 1581 1919 1581 
Q 1219 1581 811 2004 
Q 403 2428 403 3163 
Q 403 3881 828 4315 
Q 1253 4750 1959 4750 
Q 2769 4750 3195 4129 
Q 3622 3509 3622 2328 
Q 3622 1225 3098 567 
Q 2575 -91 1691 -91 
Q 1453 -91 1209 -44 
Q 966 3 703 97 
z
M 1959 2075 
Q 2384 2075 2632 2365 
Q 2881 2656 2881 3163 
Q 2881 3666 2632 3958 
Q 2384 4250 1959 4250 
Q 1534 4250 1286 3958 
Q 1038 3666 1038 3163 
Q 1038 2656 1286 2365 
Q 1534 2075 1959 2075 
z
" transform="scale(0.015625)"/>
      </defs>
      <use xlink:href="#DejaVuSans-39"/>
     </g>
    </g>
   </g>
   <g id="text_11">
    <g clip-path="url(#p920a6a5e1d)">
     <!-- 10 -->
     <g transform="translate(284.73362 33.301333) scale(0.12 -0.12)">
      <use xlink:href="#DejaVuSans-31"/>
      <use xlink:href="#DejaVuSans-30" x="63.623047"/>
     </g>
    </g>
   </g>
   <g id="text_12">
    <g clip-path="url(#p920a6a5e1d)">
     <!-- 11 -->
     <g transform="translate(289.666593 217.739893) scale(0.12 -0.12)">
      <use xlink:href="#DejaVuSans-31"/>
      <use xlink:href="#DejaVuSans-31" x="63.623047"/>
     </g>
    </g>
   </g>
   <g id="text_13">
    <g clip-path="url(#p920a6a5e1d)">
     <!-- 12 -->
     <g transform="translate(377.77326 173.952871) scale(0.12 -0.12)">
      <use xlink:href="#DejaVuSans-31"/>
      <use xlink:href="#DejaVuSans-32" x="63.623047"/>
     </g>
    </g>
   </g>
   <g id="text_14">
    <g clip-path="url(#p920a6a5e1d)">
     <!-- 13 -->
     <g transform="translate(413.178223 250.064417) scale(0.12 -0.12)">
      <use xlink:href="#DejaVuSans-31"/>
      <use xlink:href="#DejaVuSans-33" x="63.623047"/>
     </g>
    </g>
   </g>
   <g id="text_15">
    <g clip-path="url(#p920a6a5e1d)">
     <!-- 14 -->
     <g transform="translate(274.29754 122.334327) scale(0.12 -0.12)">
      <use xlink:href="#DejaVuSans-31"/>
      <use xlink:href="#DejaVuSans-34" x="63.623047"/>
     </g>
    </g>
   </g>
   <g id="text_16">
    <g clip-path="url(#p920a6a5e1d)">
     <!-- 15 -->
     <g transform="translate(92.588335 96.252365) scale(0.12 -0.12)">
      <use xlink:href="#DejaVuSans-31"/>
      <use xlink:href="#DejaVuSans-35" x="63.623047"/>
     </g>
    </g>
   </g>
   <g id="text_17">
    <g clip-path="url(#p920a6a5e1d)">
     <!-- 16 -->
     <g transform="translate(268.700237 157.426558) scale(0.12 -0.12)">
      <use xlink:href="#DejaVuSans-31"/>
      <use xlink:href="#DejaVuSans-36" x="63.623047"/>
     </g>
    </g>
   </g>
   <g id="text_18">
    <g clip-path="url(#p920a6a5e1d)">
     <!-- 17 -->
     <g transform="translate(189.405009 277.871149) scale(0.12 -0.12)">
      <use xlink:href="#DejaVuSans-31"/>
      <use xlink:href="#DejaVuSans-37" x="63.623047"/>
     </g>
    </g>
   </g>
   <g id="text_19">
    <g clip-path="url(#p920a6a5e1d)">
     <!-- 18 -->
     <g transform="translate(126.75308 189.549136) scale(0.12 -0.12)">
      <use xlink:href="#DejaVuSans-31"/>
      <use xlink:href="#DejaVuSans-38" x="63.623047"/>
     </g>
    </g>
   </g>
   <g id="text_20">
    <g clip-path="url(#p920a6a5e1d)">
     <!-- 19 -->
     <g transform="translate(286.325556 175.033627) scale(0.12 -0.12)">
      <use xlink:href="#DejaVuSans-31"/>
      <use xlink:href="#DejaVuSans-39" x="63.623047"/>
     </g>
    </g>
   </g>
   <g id="text_21">
    <g clip-path="url(#p920a6a5e1d)">
     <!-- 20 -->
     <g transform="translate(194.277491 126.657011) scale(0.12 -0.12)">
      <use xlink:href="#DejaVuSans-32"/>
      <use xlink:href="#DejaVuSans-30" x="63.623047"/>
     </g>
    </g>
   </g>
   <g id="text_22">
    <g clip-path="url(#p920a6a5e1d)">
     <!-- 21 -->
     <g transform="translate(156.639487 204.612922) scale(0.12 -0.12)">
      <use xlink:href="#DejaVuSans-32"/>
      <use xlink:href="#DejaVuSans-31" x="63.623047"/>
     </g>
    </g>
   </g>
   <g id="text_23">
    <g clip-path="url(#p920a6a5e1d)">
     <!-- 22 -->
     <g transform="translate(350.40027 297.200292) scale(0.12 -0.12)">
      <use xlink:href="#DejaVuSans-32"/>
      <use xlink:href="#DejaVuSans-32" x="63.623047"/>
     </g>
    </g>
   </g>
   <g id="text_24">
    <g clip-path="url(#p920a6a5e1d)">
     <!-- 23 -->
     <g transform="translate(135.520532 139.990721) scale(0.12 -0.12)">
      <use xlink:href="#DejaVuSans-32"/>
      <use xlink:href="#DejaVuSans-33" x="63.623047"/>
     </g>
    </g>
   </g>
   <g id="text_25">
    <g clip-path="url(#p920a6a5e1d)">
     <!-- 24 -->
     <g transform="translate(397.856064 277.525269) scale(0.12 -0.12)">
      <use xlink:href="#DejaVuSans-32"/>
      <use xlink:href="#DejaVuSans-34" x="63.623047"/>
     </g>
    </g>
   </g>
   <g id="text_26">
    <g clip-path="url(#p920a6a5e1d)">
     <!-- 25 -->
     <g transform="translate(387.043791 287.406141) scale(0.12 -0.12)">
      <use xlink:href="#DejaVuSans-32"/>
      <use xlink:href="#DejaVuSans-35" x="63.623047"/>
     </g>
    </g>
   </g>
   <g id="text_27">
    <g clip-path="url(#p920a6a5e1d)">
     <!-- 26 -->
     <g transform="translate(409.610777 206.651789) scale(0.12 -0.12)">
      <use xlink:href="#DejaVuSans-32"/>
      <use xlink:href="#DejaVuSans-36" x="63.623047"/>
     </g>
    </g>
   </g>
   <g id="text_28">
    <g clip-path="url(#p920a6a5e1d)">
     <!-- 27 -->
     <g transform="translate(180.910676 318.921167) scale(0.12 -0.12)">
      <use xlink:href="#DejaVuSans-32"/>
      <use xlink:href="#DejaVuSans-37" x="63.623047"/>
     </g>
    </g>
   </g>
  </g>
 </g>
 <defs>
  <clipPath id="p920a6a5e1d">
   <rect x="0" y="0" width="460.8" height="345.6"/>
  </clipPath>
 </defs>
</svg>
