<?xml version="1.0" encoding="utf-8" standalone="no"?>
<!DOCTYPE svg PUBLIC "-//W3C//DTD SVG 1.1//EN"
  "http://www.w3.org/Graphics/SVG/1.1/DTD/svg11.dtd">
<svg xmlns:xlink="http://www.w3.org/1999/xlink" width="460.8pt" height="345.6pt" viewBox="0 0 460.8 345.6" xmlns="http://www.w3.org/2000/svg" version="1.1">
 <metadata>
  <rdf:RDF xmlns:dc="http://purl.org/dc/elements/1.1/" xmlns:cc="http://creativecommons.org/ns#" xmlns:rdf="http://www.w3.org/1999/02/22-rdf-syntax-ns#">
   <cc:Work>
    <dc:type rdf:resource="http://purl.org/dc/dcmitype/StillImage"/>
    <dc:date>2023-08-16T02:44:43.331955</dc:date>
    <dc:format>image/svg+xml</dc:format>
    <dc:creator>
     <cc:Agent>
      <dc:title>Matplotlib v3.7.2, https://matplotlib.org/</dc:title>
     </cc:Agent>
    </dc:creator>
   </cc:Work>
  </rdf:RDF>
 </metadata>
 <defs>
  <style type="text/css">*{stroke-linejoin: round; stroke-linecap: butt}</style>
 </defs>
 <g id="figure_1">
  <g id="patch_1">
   <path d="M 0 345.6 
L 460.8 345.6 
L 460.8 0 
L 0 0 
z
" style="fill: #ffffff"/>
  </g>
  <g id="axes_1">
   <g id="LineCollection_1">
    <path d="M 71.612721 256.147434 
L 92.620609 227.58108 
" clip-path="url(#p581ca66be7)" style="fill: none; stroke: #ff0000"/>
    <path d="M 71.612721 256.147434 
L 71.460324 286.483751 
" clip-path="url(#p581ca66be7)" style="fill: none; stroke: #ff0000"/>
    <path d="M 71.612721 256.147434 
L 114.92427 36.914803 
" clip-path="url(#p581ca66be7)" style="fill: none; stroke: #008000"/>
    <path d="M 71.612721 256.147434 
L 134.342154 312.422587 
" clip-path="url(#p581ca66be7)" style="fill: none; stroke: #008000"/>
    <path d="M 114.92427 36.914803 
L 137.609003 62.308677 
" clip-path="url(#p581ca66be7)" style="fill: none; stroke: #ff0000"/>
    <path d="M 134.342154 312.422587 
L 116.596124 286.666712 
" clip-path="url(#p581ca66be7)" style="fill: none; stroke: #00ffff"/>
    <path d="M 39.986777 305.580529 
L 71.460324 286.483751 
" clip-path="url(#p581ca66be7)" style="fill: none; stroke: #ff0000"/>
    <path d="M 39.986777 305.580529 
L 137.609003 62.308677 
" clip-path="url(#p581ca66be7)" style="fill: none; stroke: #008000"/>
    <path d="M 137.609003 62.308677 
L 170.121438 96.707304 
" clip-path="url(#p581ca66be7)" style="fill: none; stroke: #ff0000"/>
    <path d="M 137.609003 62.308677 
L 164.560402 201.247045 
" clip-path="url(#p581ca66be7)" style="fill: none; stroke: #008000"/>
    <path d="M 170.121438 96.707304 
L 137.945658 87.443314 
" clip-path="url(#p581ca66be7)" style="fill: none; stroke: #ff0000"/>
    <path d="M 170.121438 96.707304 
L 236.599659 89.08068 
" clip-path="url(#p581ca66be7)" style="fill: none; stroke: #ff0000"/>
    <path d="M 170.121438 96.707304 
L 151.233831 147.825252 
" clip-path="url(#p581ca66be7)" style="fill: none; stroke: #ff0000"/>
    <path d="M 170.121438 96.707304 
L 172.960537 71.522571 
" clip-path="url(#p581ca66be7)" style="fill: none; stroke: #ff0000"/>
    <path d="M 170.121438 96.707304 
L 116.596124 286.666712 
" clip-path="url(#p581ca66be7)" style="fill: none; stroke: #008000"/>
    <path d="M 116.596124 286.666712 
L 141.992512 245.75282 
" clip-path="url(#p581ca66be7)" style="fill: none; stroke: #ff0000"/>
    <path d="M 116.596124 286.666712 
L 71.460324 286.483751 
" clip-path="url(#p581ca66be7)" style="fill: none; stroke: #ff0000"/>
    <path d="M 116.596124 286.666712 
L 105.55183 315.609917 
" clip-path="url(#p581ca66be7)" style="fill: none; stroke: #ff0000"/>
    <path d="M 116.596124 286.666712 
L 301.73138 85.583598 
" clip-path="url(#p581ca66be7)" style="fill: none; stroke: #008000"/>
    <path d="M 116.596124 286.666712 
L 343.56052 29.990083 
" clip-path="url(#p581ca66be7)" style="fill: none; stroke: #008000"/>
    <path d="M 164.560402 201.247045 
L 211.190997 218.991946 
" clip-path="url(#p581ca66be7)" style="fill: none; stroke: #ff0000"/>
    <path d="M 164.560402 201.247045 
L 141.992512 245.75282 
" clip-path="url(#p581ca66be7)" style="fill: none; stroke: #ff0000"/>
    <path d="M 164.560402 201.247045 
L 151.233831 147.825252 
" clip-path="url(#p581ca66be7)" style="fill: none; stroke: #ff0000"/>
    <path d="M 164.560402 201.247045 
L 119.2253 155.43652 
" clip-path="url(#p581ca66be7)" style="fill: none; stroke: #008000"/>
    <path d="M 324.74177 54.476107 
L 301.73138 85.583598 
" clip-path="url(#p581ca66be7)" style="fill: none; stroke: #ff0000"/>
    <path d="M 324.74177 54.476107 
L 343.56052 29.990083 
" clip-path="url(#p581ca66be7)" style="fill: none; stroke: #ff0000"/>
    <path d="M 119.2253 155.43652 
L 151.233831 147.825252 
" clip-path="url(#p581ca66be7)" style="fill: none; stroke: #ff0000"/>
    <path d="M 92.620609 227.58108 
L 236.599659 89.08068 
" clip-path="url(#p581ca66be7)" style="fill: none; stroke: #008000"/>
    <path d="M 141.992512 245.75282 
L 118.946171 135.168145 
" clip-path="url(#p581ca66be7)" style="fill: none; stroke: #008000"/>
    <path d="M 141.992512 245.75282 
L 211.190997 218.991946 
" clip-path="url(#p581ca66be7)" style="fill: none; stroke: #008000"/>
    <path d="M 301.73138 85.583598 
L 236.599659 89.08068 
" clip-path="url(#p581ca66be7)" style="fill: none; stroke: #ff0000"/>
    <path d="M 301.73138 85.583598 
L 355.912055 104.444513 
" clip-path="url(#p581ca66be7)" style="fill: none; stroke: #ff0000"/>
    <path d="M 301.73138 85.583598 
L 211.190997 218.991946 
" clip-path="url(#p581ca66be7)" style="fill: none; stroke: #008000"/>
    <path d="M 211.190997 218.991946 
L 252.644752 235.591396 
" clip-path="url(#p581ca66be7)" style="fill: none; stroke: #ff0000"/>
    <path d="M 172.960537 71.522571 
L 236.599659 89.08068 
" clip-path="url(#p581ca66be7)" style="fill: none; stroke: #008000"/>
    <path d="M 151.233831 147.825252 
L 118.946171 135.168145 
" clip-path="url(#p581ca66be7)" style="fill: none; stroke: #ff0000"/>
    <path d="M 236.599659 89.08068 
L 284.438534 249.814686 
" clip-path="url(#p581ca66be7)" style="fill: none; stroke: #008000"/>
    <path d="M 284.438534 249.814686 
L 252.644752 235.591396 
" clip-path="url(#p581ca66be7)" style="fill: none; stroke: #ff0000"/>
    <path d="M 284.438534 249.814686 
L 397.350206 107.012328 
" clip-path="url(#p581ca66be7)" style="fill: none; stroke: #008000"/>
    <path d="M 420.813223 121.621309 
L 397.350206 107.012328 
" clip-path="url(#p581ca66be7)" style="fill: none; stroke: #ff0000"/>
    <path d="M 420.813223 121.621309 
L 390.334472 122.041168 
" clip-path="url(#p581ca66be7)" style="fill: none; stroke: #ff0000"/>
    <path d="M 390.334472 122.041168 
L 397.350206 107.012328 
" clip-path="url(#p581ca66be7)" style="fill: none; stroke: #008000"/>
    <path d="M 355.912055 104.444513 
L 397.350206 107.012328 
" clip-path="url(#p581ca66be7)" style="fill: none; stroke: #ff0000"/>
   </g>
   <g id="PathCollection_1">
    <defs>
     <path id="C0_0_2d9cd95ccf" d="M 0 8.660254 
C 2.296726 8.660254 4.499694 7.747755 6.123724 6.123724 
C 7.747755 4.499694 8.660254 2.296726 8.660254 -0 
C 8.660254 -2.296726 7.747755 -4.499694 6.123724 -6.123724 
C 4.499694 -7.747755 2.296726 -8.660254 0 -8.660254 
C -2.296726 -8.660254 -4.499694 -7.747755 -6.123724 -6.123724 
C -7.747755 -4.499694 -8.660254 -2.296726 -8.660254 0 
C -8.660254 2.296726 -7.747755 4.499694 -6.123724 6.123724 
C -4.499694 7.747755 -2.296726 8.660254 0 8.660254 
z
"/>
    </defs>
    <g clip-path="url(#p581ca66be7)">
     <use xlink:href="#C0_0_2d9cd95ccf" x="71.612721" y="256.147434" style="fill: #00ffff; stroke: #00ffff"/>
    </g>
    <g clip-path="url(#p581ca66be7)">
     <use xlink:href="#C0_0_2d9cd95ccf" x="114.92427" y="36.914803" style="fill: #00ffff; stroke: #00ffff"/>
    </g>
    <g clip-path="url(#p581ca66be7)">
     <use xlink:href="#C0_0_2d9cd95ccf" x="134.342154" y="312.422587" style="fill: #00ffff; stroke: #00ffff"/>
    </g>
    <g clip-path="url(#p581ca66be7)">
     <use xlink:href="#C0_0_2d9cd95ccf" x="39.986777" y="305.580529" style="fill: #00ffff; stroke: #00ffff"/>
    </g>
    <g clip-path="url(#p581ca66be7)">
     <use xlink:href="#C0_0_2d9cd95ccf" x="137.609003" y="62.308677" style="fill: #00ffff; stroke: #00ffff"/>
    </g>
    <g clip-path="url(#p581ca66be7)">
     <use xlink:href="#C0_0_2d9cd95ccf" x="170.121438" y="96.707304" style="fill: #00ffff; stroke: #00ffff"/>
    </g>
    <g clip-path="url(#p581ca66be7)">
     <use xlink:href="#C0_0_2d9cd95ccf" x="116.596124" y="286.666712" style="fill: #00ffff; stroke: #00ffff"/>
    </g>
    <g clip-path="url(#p581ca66be7)">
     <use xlink:href="#C0_0_2d9cd95ccf" x="71.460324" y="286.483751" style="fill: #00ffff; stroke: #00ffff"/>
    </g>
    <g clip-path="url(#p581ca66be7)">
     <use xlink:href="#C0_0_2d9cd95ccf" x="164.560402" y="201.247045" style="fill: #00ffff; stroke: #00ffff"/>
    </g>
    <g clip-path="url(#p581ca66be7)">
     <use xlink:href="#C0_0_2d9cd95ccf" x="324.74177" y="54.476107" style="fill: #00ffff; stroke: #00ffff"/>
    </g>
    <g clip-path="url(#p581ca66be7)">
     <use xlink:href="#C0_0_2d9cd95ccf" x="119.2253" y="155.43652" style="fill: #00ffff; stroke: #00ffff"/>
    </g>
    <g clip-path="url(#p581ca66be7)">
     <use xlink:href="#C0_0_2d9cd95ccf" x="92.620609" y="227.58108" style="fill: #00ffff; stroke: #00ffff"/>
    </g>
    <g clip-path="url(#p581ca66be7)">
     <use xlink:href="#C0_0_2d9cd95ccf" x="141.992512" y="245.75282" style="fill: #00ffff; stroke: #00ffff"/>
    </g>
    <g clip-path="url(#p581ca66be7)">
     <use xlink:href="#C0_0_2d9cd95ccf" x="343.56052" y="29.990083" style="fill: #00ffff; stroke: #00ffff"/>
    </g>
    <g clip-path="url(#p581ca66be7)">
     <use xlink:href="#C0_0_2d9cd95ccf" x="301.73138" y="85.583598" style="fill: #00ffff; stroke: #00ffff"/>
    </g>
    <g clip-path="url(#p581ca66be7)">
     <use xlink:href="#C0_0_2d9cd95ccf" x="211.190997" y="218.991946" style="fill: #00ffff; stroke: #00ffff"/>
    </g>
    <g clip-path="url(#p581ca66be7)">
     <use xlink:href="#C0_0_2d9cd95ccf" x="137.945658" y="87.443314" style="fill: #00ffff; stroke: #00ffff"/>
    </g>
    <g clip-path="url(#p581ca66be7)">
     <use xlink:href="#C0_0_2d9cd95ccf" x="172.960537" y="71.522571" style="fill: #00ffff; stroke: #00ffff"/>
    </g>
    <g clip-path="url(#p581ca66be7)">
     <use xlink:href="#C0_0_2d9cd95ccf" x="151.233831" y="147.825252" style="fill: #00ffff; stroke: #00ffff"/>
    </g>
    <g clip-path="url(#p581ca66be7)">
     <use xlink:href="#C0_0_2d9cd95ccf" x="236.599659" y="89.08068" style="fill: #00ffff; stroke: #00ffff"/>
    </g>
    <g clip-path="url(#p581ca66be7)">
     <use xlink:href="#C0_0_2d9cd95ccf" x="118.946171" y="135.168145" style="fill: #00ffff; stroke: #00ffff"/>
    </g>
    <g clip-path="url(#p581ca66be7)">
     <use xlink:href="#C0_0_2d9cd95ccf" x="284.438534" y="249.814686" style="fill: #00ffff; stroke: #00ffff"/>
    </g>
    <g clip-path="url(#p581ca66be7)">
     <use xlink:href="#C0_0_2d9cd95ccf" x="105.55183" y="315.609917" style="fill: #00ffff; stroke: #00ffff"/>
    </g>
    <g clip-path="url(#p581ca66be7)">
     <use xlink:href="#C0_0_2d9cd95ccf" x="252.644752" y="235.591396" style="fill: #00ffff; stroke: #00ffff"/>
    </g>
    <g clip-path="url(#p581ca66be7)">
     <use xlink:href="#C0_0_2d9cd95ccf" x="420.813223" y="121.621309" style="fill: #00ffff; stroke: #00ffff"/>
    </g>
    <g clip-path="url(#p581ca66be7)">
     <use xlink:href="#C0_0_2d9cd95ccf" x="390.334472" y="122.041168" style="fill: #00ffff; stroke: #00ffff"/>
    </g>
    <g clip-path="url(#p581ca66be7)">
     <use xlink:href="#C0_0_2d9cd95ccf" x="355.912055" y="104.444513" style="fill: #00ffff; stroke: #00ffff"/>
    </g>
    <g clip-path="url(#p581ca66be7)">
     <use xlink:href="#C0_0_2d9cd95ccf" x="397.350206" y="107.012328" style="fill: #00ffff; stroke: #00ffff"/>
    </g>
   </g>
   <g id="text_1">
    <g clip-path="url(#p581ca66be7)">
     <!-- 0 -->
     <g transform="translate(67.795221 259.458684) scale(0.12 -0.12)">
      <defs>
       <path id="DejaVuSans-30" d="M 2034 4250 
Q 1547 4250 1301 3770 
Q 1056 3291 1056 2328 
Q 1056 1369 1301 889 
Q 1547 409 2034 409 
Q 2525 409 2770 889 
Q 3016 1369 3016 2328 
Q 3016 3291 2770 3770 
Q 2525 4250 2034 4250 
z
M 2034 4750 
Q 2819 4750 3233 4129 
Q 3647 3509 3647 2328 
Q 3647 1150 3233 529 
Q 2819 -91 2034 -91 
Q 1250 -91 836 529 
Q 422 1150 422 2328 
Q 422 3509 836 4129 
Q 1250 4750 2034 4750 
z
" transform="scale(0.015625)"/>
      </defs>
      <use xlink:href="#DejaVuSans-30"/>
     </g>
    </g>
   </g>
   <g id="text_2">
    <g clip-path="url(#p581ca66be7)">
     <!-- 1 -->
     <g transform="translate(111.10677 40.226053) scale(0.12 -0.12)">
      <defs>
       <path id="DejaVuSans-31" d="M 794 531 
L 1825 531 
L 1825 4091 
L 703 3866 
L 703 4441 
L 1819 4666 
L 2450 4666 
L 2450 531 
L 3481 531 
L 3481 0 
L 794 0 
L 794 531 
z
" transform="scale(0.015625)"/>
      </defs>
      <use xlink:href="#DejaVuSans-31"/>
     </g>
    </g>
   </g>
   <g id="text_3">
    <g clip-path="url(#p581ca66be7)">
     <!-- 2 -->
     <g transform="translate(130.524654 315.733837) scale(0.12 -0.12)">
      <defs>
       <path id="DejaVuSans-32" d="M 1228 531 
L 3431 531 
L 3431 0 
L 469 0 
L 469 531 
Q 828 903 1448 1529 
Q 2069 2156 2228 2338 
Q 2531 2678 2651 2914 
Q 2772 3150 2772 3378 
Q 2772 3750 2511 3984 
Q 2250 4219 1831 4219 
Q 1534 4219 1204 4116 
Q 875 4013 500 3803 
L 500 4441 
Q 881 4594 1212 4672 
Q 1544 4750 1819 4750 
Q 2544 4750 2975 4387 
Q 3406 4025 3406 3419 
Q 3406 3131 3298 2873 
Q 3191 2616 2906 2266 
Q 2828 2175 2409 1742 
Q 1991 1309 1228 531 
z
" transform="scale(0.015625)"/>
      </defs>
      <use xlink:href="#DejaVuSans-32"/>
     </g>
    </g>
   </g>
   <g id="text_4">
    <g clip-path="url(#p581ca66be7)">
     <!-- 3 -->
     <g transform="translate(36.169277 308.891779) scale(0.12 -0.12)">
      <defs>
       <path id="DejaVuSans-33" d="M 2597 2516 
Q 3050 2419 3304 2112 
Q 3559 1806 3559 1356 
Q 3559 666 3084 287 
Q 2609 -91 1734 -91 
Q 1441 -91 1130 -33 
Q 819 25 488 141 
L 488 750 
Q 750 597 1062 519 
Q 1375 441 1716 441 
Q 2309 441 2620 675 
Q 2931 909 2931 1356 
Q 2931 1769 2642 2001 
Q 2353 2234 1838 2234 
L 1294 2234 
L 1294 2753 
L 1863 2753 
Q 2328 2753 2575 2939 
Q 2822 3125 2822 3475 
Q 2822 3834 2567 4026 
Q 2313 4219 1838 4219 
Q 1578 4219 1281 4162 
Q 984 4106 628 3988 
L 628 4550 
Q 988 4650 1302 4700 
Q 1616 4750 1894 4750 
Q 2613 4750 3031 4423 
Q 3450 4097 3450 3541 
Q 3450 3153 3228 2886 
Q 3006 2619 2597 2516 
z
" transform="scale(0.015625)"/>
      </defs>
      <use xlink:href="#DejaVuSans-33"/>
     </g>
    </g>
   </g>
   <g id="text_5">
    <g clip-path="url(#p581ca66be7)">
     <!-- 4 -->
     <g transform="translate(133.791503 65.619927) scale(0.12 -0.12)">
      <defs>
       <path id="DejaVuSans-34" d="M 2419 4116 
L 825 1625 
L 2419 1625 
L 2419 4116 
z
M 2253 4666 
L 3047 4666 
L 3047 1625 
L 3713 1625 
L 3713 1100 
L 3047 1100 
L 3047 0 
L 2419 0 
L 2419 1100 
L 313 1100 
L 313 1709 
L 2253 4666 
z
" transform="scale(0.015625)"/>
      </defs>
      <use xlink:href="#DejaVuSans-34"/>
     </g>
    </g>
   </g>
   <g id="text_6">
    <g clip-path="url(#p581ca66be7)">
     <!-- 5 -->
     <g transform="translate(166.303938 100.018554) scale(0.12 -0.12)">
      <defs>
       <path id="DejaVuSans-35" d="M 691 4666 
L 3169 4666 
L 3169 4134 
L 1269 4134 
L 1269 2991 
Q 1406 3038 1543 3061 
Q 1681 3084 1819 3084 
Q 2600 3084 3056 2656 
Q 3513 2228 3513 1497 
Q 3513 744 3044 326 
Q 2575 -91 1722 -91 
Q 1428 -91 1123 -41 
Q 819 9 494 109 
L 494 744 
Q 775 591 1075 516 
Q 1375 441 1709 441 
Q 2250 441 2565 725 
Q 2881 1009 2881 1497 
Q 2881 1984 2565 2268 
Q 2250 2553 1709 2553 
Q 1456 2553 1204 2497 
Q 953 2441 691 2322 
L 691 4666 
z
" transform="scale(0.015625)"/>
      </defs>
      <use xlink:href="#DejaVuSans-35"/>
     </g>
    </g>
   </g>
   <g id="text_7">
    <g clip-path="url(#p581ca66be7)">
     <!-- 6 -->
     <g transform="translate(112.778624 289.977962) scale(0.12 -0.12)">
      <defs>
       <path id="DejaVuSans-36" d="M 2113 2584 
Q 1688 2584 1439 2293 
Q 1191 2003 1191 1497 
Q 1191 994 1439 701 
Q 1688 409 2113 409 
Q 2538 409 2786 701 
Q 3034 994 3034 1497 
Q 3034 2003 2786 2293 
Q 2538 2584 2113 2584 
z
M 3366 4563 
L 3366 3988 
Q 3128 4100 2886 4159 
Q 2644 4219 2406 4219 
Q 1781 4219 1451 3797 
Q 1122 3375 1075 2522 
Q 1259 2794 1537 2939 
Q 1816 3084 2150 3084 
Q 2853 3084 3261 2657 
Q 3669 2231 3669 1497 
Q 3669 778 3244 343 
Q 2819 -91 2113 -91 
Q 1303 -91 875 529 
Q 447 1150 447 2328 
Q 447 3434 972 4092 
Q 1497 4750 2381 4750 
Q 2619 4750 2861 4703 
Q 3103 4656 3366 4563 
z
" transform="scale(0.015625)"/>
      </defs>
      <use xlink:href="#DejaVuSans-36"/>
     </g>
    </g>
   </g>
   <g id="text_8">
    <g clip-path="url(#p581ca66be7)">
     <!-- 7 -->
     <g transform="translate(67.642824 289.795001) scale(0.12 -0.12)">
      <defs>
       <path id="DejaVuSans-37" d="M 525 4666 
L 3525 4666 
L 3525 4397 
L 1831 0 
L 1172 0 
L 2766 4134 
L 525 4134 
L 525 4666 
z
" transform="scale(0.015625)"/>
      </defs>
      <use xlink:href="#DejaVuSans-37"/>
     </g>
    </g>
   </g>
   <g id="text_9">
    <g clip-path="url(#p581ca66be7)">
     <!-- 8 -->
     <g transform="translate(160.742902 204.558295) scale(0.12 -0.12)">
      <defs>
       <path id="DejaVuSans-38" d="M 2034 2216 
Q 1584 2216 1326 1975 
Q 1069 1734 1069 1313 
Q 1069 891 1326 650 
Q 1584 409 2034 409 
Q 2484 409 2743 651 
Q 3003 894 3003 1313 
Q 3003 1734 2745 1975 
Q 2488 2216 2034 2216 
z
M 1403 2484 
Q 997 2584 770 2862 
Q 544 3141 544 3541 
Q 544 4100 942 4425 
Q 1341 4750 2034 4750 
Q 2731 4750 3128 4425 
Q 3525 4100 3525 3541 
Q 3525 3141 3298 2862 
Q 3072 2584 2669 2484 
Q 3125 2378 3379 2068 
Q 3634 1759 3634 1313 
Q 3634 634 3220 271 
Q 2806 -91 2034 -91 
Q 1263 -91 848 271 
Q 434 634 434 1313 
Q 434 1759 690 2068 
Q 947 2378 1403 2484 
z
M 1172 3481 
Q 1172 3119 1398 2916 
Q 1625 2713 2034 2713 
Q 2441 2713 2670 2916 
Q 2900 3119 2900 3481 
Q 2900 3844 2670 4047 
Q 2441 4250 2034 4250 
Q 1625 4250 1398 4047 
Q 1172 3844 1172 3481 
z
" transform="scale(0.015625)"/>
      </defs>
      <use xlink:href="#DejaVuSans-38"/>
     </g>
    </g>
   </g>
   <g id="text_10">
    <g clip-path="url(#p581ca66be7)">
     <!-- 9 -->
     <g transform="translate(320.92427 57.787357) scale(0.12 -0.12)">
      <defs>
       <path id="DejaVuSans-39" d="M 703 97 
L 703 672 
Q 941 559 1184 500 
Q 1428 441 1663 441 
Q 2288 441 2617 861 
Q 2947 1281 2994 2138 
Q 2813 1869 2534 1725 
Q 2256 1581 1919 1581 
Q 1219 1581 811 2004 
Q 403 2428 403 3163 
Q 403 3881 828 4315 
Q 1253 4750 1959 4750 
Q 2769 4750 3195 4129 
Q 3622 3509 3622 2328 
Q 3622 1225 3098 567 
Q 2575 -91 1691 -91 
Q 1453 -91 1209 -44 
Q 966 3 703 97 
z
M 1959 2075 
Q 2384 2075 2632 2365 
Q 2881 2656 2881 3163 
Q 2881 3666 2632 3958 
Q 2384 4250 1959 4250 
Q 1534 4250 1286 3958 
Q 1038 3666 1038 3163 
Q 1038 2656 1286 2365 
Q 1534 2075 1959 2075 
z
" transform="scale(0.015625)"/>
      </defs>
      <use xlink:href="#DejaVuSans-39"/>
     </g>
    </g>
   </g>
   <g id="text_11">
    <g clip-path="url(#p581ca66be7)">
     <!-- 10 -->
     <g transform="translate(111.5903 158.74777) scale(0.12 -0.12)">
      <use xlink:href="#DejaVuSans-31"/>
      <use xlink:href="#DejaVuSans-30" x="63.623047"/>
     </g>
    </g>
   </g>
   <g id="text_12">
    <g clip-path="url(#p581ca66be7)">
     <!-- 11 -->
     <g transform="translate(84.985609 230.89233) scale(0.12 -0.12)">
      <use xlink:href="#DejaVuSans-31"/>
      <use xlink:href="#DejaVuSans-31" x="63.623047"/>
     </g>
    </g>
   </g>
   <g id="text_13">
    <g clip-path="url(#p581ca66be7)">
     <!-- 12 -->
     <g transform="translate(134.357512 249.06407) scale(0.12 -0.12)">
      <use xlink:href="#DejaVuSans-31"/>
      <use xlink:href="#DejaVuSans-32" x="63.623047"/>
     </g>
    </g>
   </g>
   <g id="text_14">
    <g clip-path="url(#p581ca66be7)">
     <!-- 13 -->
     <g transform="translate(335.92552 33.301333) scale(0.12 -0.12)">
      <use xlink:href="#DejaVuSans-31"/>
      <use xlink:href="#DejaVuSans-33" x="63.623047"/>
     </g>
    </g>
   </g>
   <g id="text_15">
    <g clip-path="url(#p581ca66be7)">
     <!-- 14 -->
     <g transform="translate(294.09638 88.894848) scale(0.12 -0.12)">
      <use xlink:href="#DejaVuSans-31"/>
      <use xlink:href="#DejaVuSans-34" x="63.623047"/>
     </g>
    </g>
   </g>
   <g id="text_16">
    <g clip-path="url(#p581ca66be7)">
     <!-- 15 -->
     <g transform="translate(203.555997 222.303196) scale(0.12 -0.12)">
      <use xlink:href="#DejaVuSans-31"/>
      <use xlink:href="#DejaVuSans-35" x="63.623047"/>
     </g>
    </g>
   </g>
   <g id="text_17">
    <g clip-path="url(#p581ca66be7)">
     <!-- 16 -->
     <g transform="translate(130.310658 90.754564) scale(0.12 -0.12)">
      <use xlink:href="#DejaVuSans-31"/>
      <use xlink:href="#DejaVuSans-36" x="63.623047"/>
     </g>
    </g>
   </g>
   <g id="text_18">
    <g clip-path="url(#p581ca66be7)">
     <!-- 17 -->
     <g transform="translate(165.325537 74.833821) scale(0.12 -0.12)">
      <use xlink:href="#DejaVuSans-31"/>
      <use xlink:href="#DejaVuSans-37" x="63.623047"/>
     </g>
    </g>
   </g>
   <g id="text_19">
    <g clip-path="url(#p581ca66be7)">
     <!-- 18 -->
     <g transform="translate(143.598831 151.136502) scale(0.12 -0.12)">
      <use xlink:href="#DejaVuSans-31"/>
      <use xlink:href="#DejaVuSans-38" x="63.623047"/>
     </g>
    </g>
   </g>
   <g id="text_20">
    <g clip-path="url(#p581ca66be7)">
     <!-- 19 -->
     <g transform="translate(228.964659 92.39193) scale(0.12 -0.12)">
      <use xlink:href="#DejaVuSans-31"/>
      <use xlink:href="#DejaVuSans-39" x="63.623047"/>
     </g>
    </g>
   </g>
   <g id="text_21">
    <g clip-path="url(#p581ca66be7)">
     <!-- 20 -->
     <g transform="translate(111.311171 138.479395) scale(0.12 -0.12)">
      <use xlink:href="#DejaVuSans-32"/>
      <use xlink:href="#DejaVuSans-30" x="63.623047"/>
     </g>
    </g>
   </g>
   <g id="text_22">
    <g clip-path="url(#p581ca66be7)">
     <!-- 21 -->
     <g transform="translate(276.803534 253.125936) scale(0.12 -0.12)">
      <use xlink:href="#DejaVuSans-32"/>
      <use xlink:href="#DejaVuSans-31" x="63.623047"/>
     </g>
    </g>
   </g>
   <g id="text_23">
    <g clip-path="url(#p581ca66be7)">
     <!-- 22 -->
     <g transform="translate(97.91683 318.921167) scale(0.12 -0.12)">
      <use xlink:href="#DejaVuSans-32"/>
      <use xlink:href="#DejaVuSans-32" x="63.623047"/>
     </g>
    </g>
   </g>
   <g id="text_24">
    <g clip-path="url(#p581ca66be7)">
     <!-- 23 -->
     <g transform="translate(245.009752 238.902646) scale(0.12 -0.12)">
      <use xlink:href="#DejaVuSans-32"/>
      <use xlink:href="#DejaVuSans-33" x="63.623047"/>
     </g>
    </g>
   </g>
   <g id="text_25">
    <g clip-path="url(#p581ca66be7)">
     <!-- 24 -->
     <g transform="translate(413.178223 124.932559) scale(0.12 -0.12)">
      <use xlink:href="#DejaVuSans-32"/>
      <use xlink:href="#DejaVuSans-34" x="63.623047"/>
     </g>
    </g>
   </g>
   <g id="text_26">
    <g clip-path="url(#p581ca66be7)">
     <!-- 25 -->
     <g transform="translate(382.699472 125.352418) scale(0.12 -0.12)">
      <use xlink:href="#DejaVuSans-32"/>
      <use xlink:href="#DejaVuSans-35" x="63.623047"/>
     </g>
    </g>
   </g>
   <g id="text_27">
    <g clip-path="url(#p581ca66be7)">
     <!-- 26 -->
     <g transform="translate(348.277055 107.755763) scale(0.12 -0.12)">
      <use xlink:href="#DejaVuSans-32"/>
      <use xlink:href="#DejaVuSans-36" x="63.623047"/>
     </g>
    </g>
   </g>
   <g id="text_28">
    <g clip-path="url(#p581ca66be7)">
     <!-- 27 -->
     <g transform="translate(389.715206 110.323578) scale(0.12 -0.12)">
      <use xlink:href="#DejaVuSans-32"/>
      <use xlink:href="#DejaVuSans-37" x="63.623047"/>
     </g>
    </g>
   </g>
  </g>
 </g>
 <defs>
  <clipPath id="p581ca66be7">
   <rect x="0" y="0" width="460.8" height="345.6"/>
  </clipPath>
 </defs>
</svg>
