<?xml version="1.0" encoding="utf-8" standalone="no"?>
<!DOCTYPE svg PUBLIC "-//W3C//DTD SVG 1.1//EN"
  "http://www.w3.org/Graphics/SVG/1.1/DTD/svg11.dtd">
<svg xmlns:xlink="http://www.w3.org/1999/xlink" width="432pt" height="288pt" viewBox="0 0 432 288" xmlns="http://www.w3.org/2000/svg" version="1.1">
 <metadata>
  <rdf:RDF xmlns:dc="http://purl.org/dc/elements/1.1/" xmlns:cc="http://creativecommons.org/ns#" xmlns:rdf="http://www.w3.org/1999/02/22-rdf-syntax-ns#">
   <cc:Work>
    <dc:type rdf:resource="http://purl.org/dc/dcmitype/StillImage"/>
    <dc:date>2023-06-19T18:55:33.513917</dc:date>
    <dc:format>image/svg+xml</dc:format>
    <dc:creator>
     <cc:Agent>
      <dc:title>Matplotlib v3.5.3, https://matplotlib.org/</dc:title>
     </cc:Agent>
    </dc:creator>
   </cc:Work>
  </rdf:RDF>
 </metadata>
 <defs>
  <style type="text/css">*{stroke-linejoin: round; stroke-linecap: butt}</style>
 </defs>
 <g id="figure_1">
  <g id="patch_1">
   <path d="M 0 288 
L 432 288 
L 432 0 
L 0 0 
z
" style="fill: #ffffff"/>
  </g>
  <g id="axes_1">
   <g id="LineCollection_1">
    <path d="M 196.729818 150.24649 
L 152.575837 155.968574 
" clip-path="url(#p9b2ec23878)" style="fill: none; stroke: #00ffff"/>
    <path d="M 196.729818 150.24649 
L 237.614692 135.561997 
" clip-path="url(#p9b2ec23878)" style="fill: none; stroke: #00ffff"/>
    <path d="M 152.575837 155.968574 
L 135.055303 173.816894 
" clip-path="url(#p9b2ec23878)" style="fill: none; stroke: #00ffff"/>
    <path d="M 152.575837 155.968574 
L 150.240947 199.261911 
" clip-path="url(#p9b2ec23878)" style="fill: none; stroke: #00ffff"/>
    <path d="M 152.575837 155.968574 
L 124.847644 112.071202 
" clip-path="url(#p9b2ec23878)" style="fill: none; stroke: #00ffff"/>
    <path d="M 237.614692 135.561997 
L 272.440996 111.196017 
" clip-path="url(#p9b2ec23878)" style="fill: none; stroke: #00ffff"/>
    <path d="M 272.440996 111.196017 
L 241.960236 88.021017 
" clip-path="url(#p9b2ec23878)" style="fill: none; stroke: #00ffff"/>
    <path d="M 272.440996 111.196017 
L 320.082579 104.471854 
" clip-path="url(#p9b2ec23878)" style="fill: none; stroke: #00ffff"/>
    <path d="M 39.928554 79.964071 
L 68.026041 67.81447 
" clip-path="url(#p9b2ec23878)" style="fill: none; stroke: #00ffff"/>
    <path d="M 68.026041 67.81447 
L 117.669815 61.33422 
" clip-path="url(#p9b2ec23878)" style="fill: none; stroke: #00ffff"/>
    <path d="M 68.026041 67.81447 
L 37.487603 57.548604 
" clip-path="url(#p9b2ec23878)" style="fill: none; stroke: #00ffff"/>
    <path d="M 150.240947 199.261911 
L 148.21108 235.381481 
" clip-path="url(#p9b2ec23878)" style="fill: none; stroke: #00ffff"/>
    <path d="M 124.847644 112.071202 
L 100.915668 65.059572 
" clip-path="url(#p9b2ec23878)" style="fill: none; stroke: #00ffff"/>
    <path d="M 85.805188 35.151298 
L 100.915668 65.059572 
" clip-path="url(#p9b2ec23878)" style="fill: none; stroke: #00ffff"/>
    <path d="M 100.915668 65.059572 
L 103.654715 35.060333 
" clip-path="url(#p9b2ec23878)" style="fill: none; stroke: #00ffff"/>
    <path d="M 100.915668 65.059572 
L 76.439691 50.616249 
" clip-path="url(#p9b2ec23878)" style="fill: none; stroke: #00ffff"/>
    <path d="M 148.21108 235.381481 
L 146.855421 263.008264 
" clip-path="url(#p9b2ec23878)" style="fill: none; stroke: #00ffff"/>
    <path d="M 117.669815 61.33422 
L 164.512786 54.119158 
" clip-path="url(#p9b2ec23878)" style="fill: none; stroke: #00ffff"/>
    <path d="M 164.512786 54.119158 
L 183.501068 50.931122 
" clip-path="url(#p9b2ec23878)" style="fill: none; stroke: #00ffff"/>
    <path d="M 164.512786 54.119158 
L 205.940961 69.216928 
" clip-path="url(#p9b2ec23878)" style="fill: none; stroke: #00ffff"/>
    <path d="M 164.512786 54.119158 
L 168.24639 24.991736 
" clip-path="url(#p9b2ec23878)" style="fill: none; stroke: #00ffff"/>
    <path d="M 241.960236 88.021017 
L 205.940961 69.216928 
" clip-path="url(#p9b2ec23878)" style="fill: none; stroke: #00ffff"/>
    <path d="M 320.082579 104.471854 
L 354.931487 109.81851 
" clip-path="url(#p9b2ec23878)" style="fill: none; stroke: #00ffff"/>
    <path d="M 320.082579 104.471854 
L 348.035714 85.379972 
" clip-path="url(#p9b2ec23878)" style="fill: none; stroke: #00ffff"/>
    <path d="M 384.533049 102.246738 
L 354.931487 109.81851 
" clip-path="url(#p9b2ec23878)" style="fill: none; stroke: #00ffff"/>
    <path d="M 384.533049 102.246738 
L 394.512397 80.231321 
" clip-path="url(#p9b2ec23878)" style="fill: none; stroke: #00ffff"/>
    <path d="M 394.512397 80.231321 
L 374.238211 73.019183 
" clip-path="url(#p9b2ec23878)" style="fill: none; stroke: #00ffff"/>
    <path d="M 348.035714 85.379972 
L 374.238211 73.019183 
" clip-path="url(#p9b2ec23878)" style="fill: none; stroke: #00ffff"/>
   </g>
   <g id="PathCollection_1">
    <defs>
     <path id="C0_0_772f617867" d="M 0 8.660254 
C 2.296726 8.660254 4.499694 7.747755 6.123724 6.123724 
C 7.747755 4.499694 8.660254 2.296726 8.660254 -0 
C 8.660254 -2.296726 7.747755 -4.499694 6.123724 -6.123724 
C 4.499694 -7.747755 2.296726 -8.660254 0 -8.660254 
C -2.296726 -8.660254 -4.499694 -7.747755 -6.123724 -6.123724 
C -7.747755 -4.499694 -8.660254 -2.296726 -8.660254 0 
C -8.660254 2.296726 -7.747755 4.499694 -6.123724 6.123724 
C -4.499694 7.747755 -2.296726 8.660254 0 8.660254 
z
"/>
    </defs>
    <g clip-path="url(#p9b2ec23878)">
     <use xlink:href="#C0_0_772f617867" x="196.729818" y="150.24649" style="fill: #00ffff; stroke: #00ffff"/>
    </g>
    <g clip-path="url(#p9b2ec23878)">
     <use xlink:href="#C0_0_772f617867" x="152.575837" y="155.968574" style="fill: #00ffff; stroke: #00ffff"/>
    </g>
    <g clip-path="url(#p9b2ec23878)">
     <use xlink:href="#C0_0_772f617867" x="237.614692" y="135.561997" style="fill: #00ffff; stroke: #00ffff"/>
    </g>
    <g clip-path="url(#p9b2ec23878)">
     <use xlink:href="#C0_0_772f617867" x="272.440996" y="111.196017" style="fill: #00ffff; stroke: #00ffff"/>
    </g>
    <g clip-path="url(#p9b2ec23878)">
     <use xlink:href="#C0_0_772f617867" x="39.928554" y="79.964071" style="fill: #00ffff; stroke: #00ffff"/>
    </g>
    <g clip-path="url(#p9b2ec23878)">
     <use xlink:href="#C0_0_772f617867" x="68.026041" y="67.81447" style="fill: #00ffff; stroke: #00ffff"/>
    </g>
    <g clip-path="url(#p9b2ec23878)">
     <use xlink:href="#C0_0_772f617867" x="135.055303" y="173.816894" style="fill: #00ffff; stroke: #00ffff"/>
    </g>
    <g clip-path="url(#p9b2ec23878)">
     <use xlink:href="#C0_0_772f617867" x="150.240947" y="199.261911" style="fill: #00ffff; stroke: #00ffff"/>
    </g>
    <g clip-path="url(#p9b2ec23878)">
     <use xlink:href="#C0_0_772f617867" x="124.847644" y="112.071202" style="fill: #00ffff; stroke: #00ffff"/>
    </g>
    <g clip-path="url(#p9b2ec23878)">
     <use xlink:href="#C0_0_772f617867" x="85.805188" y="35.151298" style="fill: #00ffff; stroke: #00ffff"/>
    </g>
    <g clip-path="url(#p9b2ec23878)">
     <use xlink:href="#C0_0_772f617867" x="100.915668" y="65.059572" style="fill: #00ffff; stroke: #00ffff"/>
    </g>
    <g clip-path="url(#p9b2ec23878)">
     <use xlink:href="#C0_0_772f617867" x="148.21108" y="235.381481" style="fill: #00ffff; stroke: #00ffff"/>
    </g>
    <g clip-path="url(#p9b2ec23878)">
     <use xlink:href="#C0_0_772f617867" x="146.855421" y="263.008264" style="fill: #00ffff; stroke: #00ffff"/>
    </g>
    <g clip-path="url(#p9b2ec23878)">
     <use xlink:href="#C0_0_772f617867" x="103.654715" y="35.060333" style="fill: #00ffff; stroke: #00ffff"/>
    </g>
    <g clip-path="url(#p9b2ec23878)">
     <use xlink:href="#C0_0_772f617867" x="76.439691" y="50.616249" style="fill: #00ffff; stroke: #00ffff"/>
    </g>
    <g clip-path="url(#p9b2ec23878)">
     <use xlink:href="#C0_0_772f617867" x="117.669815" y="61.33422" style="fill: #00ffff; stroke: #00ffff"/>
    </g>
    <g clip-path="url(#p9b2ec23878)">
     <use xlink:href="#C0_0_772f617867" x="164.512786" y="54.119158" style="fill: #00ffff; stroke: #00ffff"/>
    </g>
    <g clip-path="url(#p9b2ec23878)">
     <use xlink:href="#C0_0_772f617867" x="37.487603" y="57.548604" style="fill: #00ffff; stroke: #00ffff"/>
    </g>
    <g clip-path="url(#p9b2ec23878)">
     <use xlink:href="#C0_0_772f617867" x="241.960236" y="88.021017" style="fill: #00ffff; stroke: #00ffff"/>
    </g>
    <g clip-path="url(#p9b2ec23878)">
     <use xlink:href="#C0_0_772f617867" x="205.940961" y="69.216928" style="fill: #00ffff; stroke: #00ffff"/>
    </g>
    <g clip-path="url(#p9b2ec23878)">
     <use xlink:href="#C0_0_772f617867" x="183.501068" y="50.931122" style="fill: #00ffff; stroke: #00ffff"/>
    </g>
    <g clip-path="url(#p9b2ec23878)">
     <use xlink:href="#C0_0_772f617867" x="320.082579" y="104.471854" style="fill: #00ffff; stroke: #00ffff"/>
    </g>
    <g clip-path="url(#p9b2ec23878)">
     <use xlink:href="#C0_0_772f617867" x="168.24639" y="24.991736" style="fill: #00ffff; stroke: #00ffff"/>
    </g>
    <g clip-path="url(#p9b2ec23878)">
     <use xlink:href="#C0_0_772f617867" x="384.533049" y="102.246738" style="fill: #00ffff; stroke: #00ffff"/>
    </g>
    <g clip-path="url(#p9b2ec23878)">
     <use xlink:href="#C0_0_772f617867" x="354.931487" y="109.81851" style="fill: #00ffff; stroke: #00ffff"/>
    </g>
    <g clip-path="url(#p9b2ec23878)">
     <use xlink:href="#C0_0_772f617867" x="394.512397" y="80.231321" style="fill: #00ffff; stroke: #00ffff"/>
    </g>
    <g clip-path="url(#p9b2ec23878)">
     <use xlink:href="#C0_0_772f617867" x="348.035714" y="85.379972" style="fill: #00ffff; stroke: #00ffff"/>
    </g>
    <g clip-path="url(#p9b2ec23878)">
     <use xlink:href="#C0_0_772f617867" x="374.238211" y="73.019183" style="fill: #00ffff; stroke: #00ffff"/>
    </g>
   </g>
   <g id="text_1">
    <g clip-path="url(#p9b2ec23878)">
     <!-- 0 -->
     <g transform="translate(192.912318 153.55774)scale(0.12 -0.12)">
      <defs>
       <path id="DejaVuSans-30" d="M 2034 4250 
Q 1547 4250 1301 3770 
Q 1056 3291 1056 2328 
Q 1056 1369 1301 889 
Q 1547 409 2034 409 
Q 2525 409 2770 889 
Q 3016 1369 3016 2328 
Q 3016 3291 2770 3770 
Q 2525 4250 2034 4250 
z
M 2034 4750 
Q 2819 4750 3233 4129 
Q 3647 3509 3647 2328 
Q 3647 1150 3233 529 
Q 2819 -91 2034 -91 
Q 1250 -91 836 529 
Q 422 1150 422 2328 
Q 422 3509 836 4129 
Q 1250 4750 2034 4750 
z
" transform="scale(0.015625)"/>
      </defs>
      <use xlink:href="#DejaVuSans-30"/>
     </g>
    </g>
   </g>
   <g id="text_2">
    <g clip-path="url(#p9b2ec23878)">
     <!-- 4 -->
     <g transform="translate(148.758337 159.279824)scale(0.12 -0.12)">
      <defs>
       <path id="DejaVuSans-34" d="M 2419 4116 
L 825 1625 
L 2419 1625 
L 2419 4116 
z
M 2253 4666 
L 3047 4666 
L 3047 1625 
L 3713 1625 
L 3713 1100 
L 3047 1100 
L 3047 0 
L 2419 0 
L 2419 1100 
L 313 1100 
L 313 1709 
L 2253 4666 
z
" transform="scale(0.015625)"/>
      </defs>
      <use xlink:href="#DejaVuSans-34"/>
     </g>
    </g>
   </g>
   <g id="text_3">
    <g clip-path="url(#p9b2ec23878)">
     <!-- 1 -->
     <g transform="translate(233.797192 138.873247)scale(0.12 -0.12)">
      <defs>
       <path id="DejaVuSans-31" d="M 794 531 
L 1825 531 
L 1825 4091 
L 703 3866 
L 703 4441 
L 1819 4666 
L 2450 4666 
L 2450 531 
L 3481 531 
L 3481 0 
L 794 0 
L 794 531 
z
" transform="scale(0.015625)"/>
      </defs>
      <use xlink:href="#DejaVuSans-31"/>
     </g>
    </g>
   </g>
   <g id="text_4">
    <g clip-path="url(#p9b2ec23878)">
     <!-- 16 -->
     <g transform="translate(264.805996 114.507267)scale(0.12 -0.12)">
      <defs>
       <path id="DejaVuSans-36" d="M 2113 2584 
Q 1688 2584 1439 2293 
Q 1191 2003 1191 1497 
Q 1191 994 1439 701 
Q 1688 409 2113 409 
Q 2538 409 2786 701 
Q 3034 994 3034 1497 
Q 3034 2003 2786 2293 
Q 2538 2584 2113 2584 
z
M 3366 4563 
L 3366 3988 
Q 3128 4100 2886 4159 
Q 2644 4219 2406 4219 
Q 1781 4219 1451 3797 
Q 1122 3375 1075 2522 
Q 1259 2794 1537 2939 
Q 1816 3084 2150 3084 
Q 2853 3084 3261 2657 
Q 3669 2231 3669 1497 
Q 3669 778 3244 343 
Q 2819 -91 2113 -91 
Q 1303 -91 875 529 
Q 447 1150 447 2328 
Q 447 3434 972 4092 
Q 1497 4750 2381 4750 
Q 2619 4750 2861 4703 
Q 3103 4656 3366 4563 
z
" transform="scale(0.015625)"/>
      </defs>
      <use xlink:href="#DejaVuSans-31"/>
      <use xlink:href="#DejaVuSans-36" x="63.623047"/>
     </g>
    </g>
   </g>
   <g id="text_5">
    <g clip-path="url(#p9b2ec23878)">
     <!-- 2 -->
     <g transform="translate(36.111054 83.275321)scale(0.12 -0.12)">
      <defs>
       <path id="DejaVuSans-32" d="M 1228 531 
L 3431 531 
L 3431 0 
L 469 0 
L 469 531 
Q 828 903 1448 1529 
Q 2069 2156 2228 2338 
Q 2531 2678 2651 2914 
Q 2772 3150 2772 3378 
Q 2772 3750 2511 3984 
Q 2250 4219 1831 4219 
Q 1534 4219 1204 4116 
Q 875 4013 500 3803 
L 500 4441 
Q 881 4594 1212 4672 
Q 1544 4750 1819 4750 
Q 2544 4750 2975 4387 
Q 3406 4025 3406 3419 
Q 3406 3131 3298 2873 
Q 3191 2616 2906 2266 
Q 2828 2175 2409 1742 
Q 1991 1309 1228 531 
z
" transform="scale(0.015625)"/>
      </defs>
      <use xlink:href="#DejaVuSans-32"/>
     </g>
    </g>
   </g>
   <g id="text_6">
    <g clip-path="url(#p9b2ec23878)">
     <!-- 10 -->
     <g transform="translate(60.391041 71.12572)scale(0.12 -0.12)">
      <use xlink:href="#DejaVuSans-31"/>
      <use xlink:href="#DejaVuSans-30" x="63.623047"/>
     </g>
    </g>
   </g>
   <g id="text_7">
    <g clip-path="url(#p9b2ec23878)">
     <!-- 3 -->
     <g transform="translate(131.237803 177.128144)scale(0.12 -0.12)">
      <defs>
       <path id="DejaVuSans-33" d="M 2597 2516 
Q 3050 2419 3304 2112 
Q 3559 1806 3559 1356 
Q 3559 666 3084 287 
Q 2609 -91 1734 -91 
Q 1441 -91 1130 -33 
Q 819 25 488 141 
L 488 750 
Q 750 597 1062 519 
Q 1375 441 1716 441 
Q 2309 441 2620 675 
Q 2931 909 2931 1356 
Q 2931 1769 2642 2001 
Q 2353 2234 1838 2234 
L 1294 2234 
L 1294 2753 
L 1863 2753 
Q 2328 2753 2575 2939 
Q 2822 3125 2822 3475 
Q 2822 3834 2567 4026 
Q 2313 4219 1838 4219 
Q 1578 4219 1281 4162 
Q 984 4106 628 3988 
L 628 4550 
Q 988 4650 1302 4700 
Q 1616 4750 1894 4750 
Q 2613 4750 3031 4423 
Q 3450 4097 3450 3541 
Q 3450 3153 3228 2886 
Q 3006 2619 2597 2516 
z
" transform="scale(0.015625)"/>
      </defs>
      <use xlink:href="#DejaVuSans-33"/>
     </g>
    </g>
   </g>
   <g id="text_8">
    <g clip-path="url(#p9b2ec23878)">
     <!-- 13 -->
     <g transform="translate(142.605947 202.573161)scale(0.12 -0.12)">
      <use xlink:href="#DejaVuSans-31"/>
      <use xlink:href="#DejaVuSans-33" x="63.623047"/>
     </g>
    </g>
   </g>
   <g id="text_9">
    <g clip-path="url(#p9b2ec23878)">
     <!-- 18 -->
     <g transform="translate(117.212644 115.382452)scale(0.12 -0.12)">
      <defs>
       <path id="DejaVuSans-38" d="M 2034 2216 
Q 1584 2216 1326 1975 
Q 1069 1734 1069 1313 
Q 1069 891 1326 650 
Q 1584 409 2034 409 
Q 2484 409 2743 651 
Q 3003 894 3003 1313 
Q 3003 1734 2745 1975 
Q 2488 2216 2034 2216 
z
M 1403 2484 
Q 997 2584 770 2862 
Q 544 3141 544 3541 
Q 544 4100 942 4425 
Q 1341 4750 2034 4750 
Q 2731 4750 3128 4425 
Q 3525 4100 3525 3541 
Q 3525 3141 3298 2862 
Q 3072 2584 2669 2484 
Q 3125 2378 3379 2068 
Q 3634 1759 3634 1313 
Q 3634 634 3220 271 
Q 2806 -91 2034 -91 
Q 1263 -91 848 271 
Q 434 634 434 1313 
Q 434 1759 690 2068 
Q 947 2378 1403 2484 
z
M 1172 3481 
Q 1172 3119 1398 2916 
Q 1625 2713 2034 2713 
Q 2441 2713 2670 2916 
Q 2900 3119 2900 3481 
Q 2900 3844 2670 4047 
Q 2441 4250 2034 4250 
Q 1625 4250 1398 4047 
Q 1172 3844 1172 3481 
z
" transform="scale(0.015625)"/>
      </defs>
      <use xlink:href="#DejaVuSans-31"/>
      <use xlink:href="#DejaVuSans-38" x="63.623047"/>
     </g>
    </g>
   </g>
   <g id="text_10">
    <g clip-path="url(#p9b2ec23878)">
     <!-- 5 -->
     <g transform="translate(81.987688 38.462548)scale(0.12 -0.12)">
      <defs>
       <path id="DejaVuSans-35" d="M 691 4666 
L 3169 4666 
L 3169 4134 
L 1269 4134 
L 1269 2991 
Q 1406 3038 1543 3061 
Q 1681 3084 1819 3084 
Q 2600 3084 3056 2656 
Q 3513 2228 3513 1497 
Q 3513 744 3044 326 
Q 2575 -91 1722 -91 
Q 1428 -91 1123 -41 
Q 819 9 494 109 
L 494 744 
Q 775 591 1075 516 
Q 1375 441 1709 441 
Q 2250 441 2565 725 
Q 2881 1009 2881 1497 
Q 2881 1984 2565 2268 
Q 2250 2553 1709 2553 
Q 1456 2553 1204 2497 
Q 953 2441 691 2322 
L 691 4666 
z
" transform="scale(0.015625)"/>
      </defs>
      <use xlink:href="#DejaVuSans-35"/>
     </g>
    </g>
   </g>
   <g id="text_11">
    <g clip-path="url(#p9b2ec23878)">
     <!-- 7 -->
     <g transform="translate(97.098168 68.370822)scale(0.12 -0.12)">
      <defs>
       <path id="DejaVuSans-37" d="M 525 4666 
L 3525 4666 
L 3525 4397 
L 1831 0 
L 1172 0 
L 2766 4134 
L 525 4134 
L 525 4666 
z
" transform="scale(0.015625)"/>
      </defs>
      <use xlink:href="#DejaVuSans-37"/>
     </g>
    </g>
   </g>
   <g id="text_12">
    <g clip-path="url(#p9b2ec23878)">
     <!-- 6 -->
     <g transform="translate(144.39358 238.692731)scale(0.12 -0.12)">
      <use xlink:href="#DejaVuSans-36"/>
     </g>
    </g>
   </g>
   <g id="text_13">
    <g clip-path="url(#p9b2ec23878)">
     <!-- 9 -->
     <g transform="translate(143.037921 266.319514)scale(0.12 -0.12)">
      <defs>
       <path id="DejaVuSans-39" d="M 703 97 
L 703 672 
Q 941 559 1184 500 
Q 1428 441 1663 441 
Q 2288 441 2617 861 
Q 2947 1281 2994 2138 
Q 2813 1869 2534 1725 
Q 2256 1581 1919 1581 
Q 1219 1581 811 2004 
Q 403 2428 403 3163 
Q 403 3881 828 4315 
Q 1253 4750 1959 4750 
Q 2769 4750 3195 4129 
Q 3622 3509 3622 2328 
Q 3622 1225 3098 567 
Q 2575 -91 1691 -91 
Q 1453 -91 1209 -44 
Q 966 3 703 97 
z
M 1959 2075 
Q 2384 2075 2632 2365 
Q 2881 2656 2881 3163 
Q 2881 3666 2632 3958 
Q 2384 4250 1959 4250 
Q 1534 4250 1286 3958 
Q 1038 3666 1038 3163 
Q 1038 2656 1286 2365 
Q 1534 2075 1959 2075 
z
" transform="scale(0.015625)"/>
      </defs>
      <use xlink:href="#DejaVuSans-39"/>
     </g>
    </g>
   </g>
   <g id="text_14">
    <g clip-path="url(#p9b2ec23878)">
     <!-- 11 -->
     <g transform="translate(96.019715 38.371583)scale(0.12 -0.12)">
      <use xlink:href="#DejaVuSans-31"/>
      <use xlink:href="#DejaVuSans-31" x="63.623047"/>
     </g>
    </g>
   </g>
   <g id="text_15">
    <g clip-path="url(#p9b2ec23878)">
     <!-- 17 -->
     <g transform="translate(68.804691 53.927499)scale(0.12 -0.12)">
      <use xlink:href="#DejaVuSans-31"/>
      <use xlink:href="#DejaVuSans-37" x="63.623047"/>
     </g>
    </g>
   </g>
   <g id="text_16">
    <g clip-path="url(#p9b2ec23878)">
     <!-- 8 -->
     <g transform="translate(113.852315 64.64547)scale(0.12 -0.12)">
      <use xlink:href="#DejaVuSans-38"/>
     </g>
    </g>
   </g>
   <g id="text_17">
    <g clip-path="url(#p9b2ec23878)">
     <!-- 19 -->
     <g transform="translate(156.877786 57.430408)scale(0.12 -0.12)">
      <use xlink:href="#DejaVuSans-31"/>
      <use xlink:href="#DejaVuSans-39" x="63.623047"/>
     </g>
    </g>
   </g>
   <g id="text_18">
    <g clip-path="url(#p9b2ec23878)">
     <!-- 20 -->
     <g transform="translate(29.852603 60.859854)scale(0.12 -0.12)">
      <use xlink:href="#DejaVuSans-32"/>
      <use xlink:href="#DejaVuSans-30" x="63.623047"/>
     </g>
    </g>
   </g>
   <g id="text_19">
    <g clip-path="url(#p9b2ec23878)">
     <!-- 12 -->
     <g transform="translate(234.325236 91.332267)scale(0.12 -0.12)">
      <use xlink:href="#DejaVuSans-31"/>
      <use xlink:href="#DejaVuSans-32" x="63.623047"/>
     </g>
    </g>
   </g>
   <g id="text_20">
    <g clip-path="url(#p9b2ec23878)">
     <!-- 15 -->
     <g transform="translate(198.305961 72.528178)scale(0.12 -0.12)">
      <use xlink:href="#DejaVuSans-31"/>
      <use xlink:href="#DejaVuSans-35" x="63.623047"/>
     </g>
    </g>
   </g>
   <g id="text_21">
    <g clip-path="url(#p9b2ec23878)">
     <!-- 14 -->
     <g transform="translate(175.866068 54.242372)scale(0.12 -0.12)">
      <use xlink:href="#DejaVuSans-31"/>
      <use xlink:href="#DejaVuSans-34" x="63.623047"/>
     </g>
    </g>
   </g>
   <g id="text_22">
    <g clip-path="url(#p9b2ec23878)">
     <!-- 24 -->
     <g transform="translate(312.447579 107.783104)scale(0.12 -0.12)">
      <use xlink:href="#DejaVuSans-32"/>
      <use xlink:href="#DejaVuSans-34" x="63.623047"/>
     </g>
    </g>
   </g>
   <g id="text_23">
    <g clip-path="url(#p9b2ec23878)">
     <!-- 21 -->
     <g transform="translate(160.61139 28.302986)scale(0.12 -0.12)">
      <use xlink:href="#DejaVuSans-32"/>
      <use xlink:href="#DejaVuSans-31" x="63.623047"/>
     </g>
    </g>
   </g>
   <g id="text_24">
    <g clip-path="url(#p9b2ec23878)">
     <!-- 22 -->
     <g transform="translate(376.898049 105.557988)scale(0.12 -0.12)">
      <use xlink:href="#DejaVuSans-32"/>
      <use xlink:href="#DejaVuSans-32" x="63.623047"/>
     </g>
    </g>
   </g>
   <g id="text_25">
    <g clip-path="url(#p9b2ec23878)">
     <!-- 23 -->
     <g transform="translate(347.296487 113.12976)scale(0.12 -0.12)">
      <use xlink:href="#DejaVuSans-32"/>
      <use xlink:href="#DejaVuSans-33" x="63.623047"/>
     </g>
    </g>
   </g>
   <g id="text_26">
    <g clip-path="url(#p9b2ec23878)">
     <!-- 27 -->
     <g transform="translate(386.877397 83.542571)scale(0.12 -0.12)">
      <use xlink:href="#DejaVuSans-32"/>
      <use xlink:href="#DejaVuSans-37" x="63.623047"/>
     </g>
    </g>
   </g>
   <g id="text_27">
    <g clip-path="url(#p9b2ec23878)">
     <!-- 25 -->
     <g transform="translate(340.400714 88.691222)scale(0.12 -0.12)">
      <use xlink:href="#DejaVuSans-32"/>
      <use xlink:href="#DejaVuSans-35" x="63.623047"/>
     </g>
    </g>
   </g>
   <g id="text_28">
    <g clip-path="url(#p9b2ec23878)">
     <!-- 26 -->
     <g transform="translate(366.603211 76.330433)scale(0.12 -0.12)">
      <use xlink:href="#DejaVuSans-32"/>
      <use xlink:href="#DejaVuSans-36" x="63.623047"/>
     </g>
    </g>
   </g>
  </g>
 </g>
 <defs>
  <clipPath id="p9b2ec23878">
   <rect x="0" y="0" width="432" height="288"/>
  </clipPath>
 </defs>
</svg>
